#Produced by Art of Illusion 2.3, Sun Jul 30 16:45:44 CEST 2006
mtllib bonfire1.mtl
g Wick3
usemtl Meche
v -0.06379 0.05526 -0.02344
v 0.01523 -0.00372 -0.0922
v -0.02977 -0.10847 -0.05406
v -0.10879 -0.04948 0.01469
v -0.08527 0.05538 -0.0483
v -0.00818 -0.00353 -0.11928
v -0.05531 -0.10819 -0.08358
v -0.13239 -0.04928 -0.01261
v -0.1034 0.05731 -0.06864
v -0.03204 -0.00081 -0.146
v -0.08546 -0.10459 -0.1173
v -0.15682 -0.04646 -0.03995
v -0.12192 0.06313 -0.08808
v -0.05734 0.00704 -0.17257
v -0.1178 -0.09462 -0.15129
v -0.18238 -0.03853 -0.0668
v -0.14161 0.07211 -0.10749
v -0.08301 0.01869 -0.19784
v -0.14876 -0.08064 -0.18177
v -0.20737 -0.02722 -0.09141
v -0.16127 0.08332 -0.12538
v -0.10733 0.03248 -0.22
v -0.17678 -0.06482 -0.20732
v -0.23073 -0.01398 -0.1127
v -0.18289 0.09695 -0.14419
v -0.13059 0.04712 -0.24026
v -0.20136 -0.04938 -0.22873
v -0.25365 0.00045 -0.13266
v -0.04678 -0.0266 -0.03875
v -0.19212 0.02379 -0.18646
vn 0.21385 0.78358 0.58332
vn 0.97322 0.21671 -0.07664
vn 0.54062 -0.78995 0.28931
vn -0.21806 -0.22316 0.95008
vn -0.17885 0.96228 0.20502
vn 0.73319 0.25378 -0.6309
vn 0.17417 -0.96242 -0.20836
vn -0.72781 -0.28505 0.62374
vn -0.10839 0.9523 0.28525
vn 0.73686 0.23886 -0.63244
vn 0.10472 -0.95279 -0.28501
vn -0.73032 -0.29805 0.61465
vn -0.02254 0.9275 0.37315
vn 0.736 0.2458 -0.63078
vn 0.02503 -0.92809 -0.3715
vn -0.73469 -0.29017 0.61321
vn 0.04608 0.89806 0.43746
vn 0.73042 0.25162 -0.63496
vn -0.04068 -0.89777 -0.43858
vn -0.73207 -0.28863 0.61706
vn 0.09334 0.87097 0.48239
vn 0.72486 0.26326 -0.63661
vn -0.0897 -0.87133 -0.48243
vn -0.72674 -0.2831 0.62586
vn -0.30454 0.95035 0.06391
vn 0.19769 0.47157 -0.85938
vn -0.4818 -0.45551 -0.74859
vn -0.9844 0.0235 0.17436
vn 0.65402 -0.00558 0.75646
vn -0.68133 0.42875 -0.59326
f 1//1 2//2 5//5
f 2//2 6//6 5//5
f 2//2 3//3 6//6
f 3//3 7//7 6//6
f 3//3 4//4 7//7
f 4//4 8//8 7//7
f 4//4 1//1 8//8
f 1//1 5//5 8//8
f 5//5 6//6 9//9
f 6//6 10//10 9//9
f 6//6 7//7 10//10
f 7//7 11//11 10//10
f 7//7 8//8 11//11
f 8//8 12//12 11//11
f 8//8 5//5 12//12
f 5//5 9//9 12//12
f 9//9 10//10 13//13
f 10//10 14//14 13//13
f 10//10 11//11 14//14
f 11//11 15//15 14//14
f 11//11 12//12 15//15
f 12//12 16//16 15//15
f 12//12 9//9 16//16
f 9//9 13//13 16//16
f 13//13 14//14 17//17
f 14//14 18//18 17//17
f 14//14 15//15 18//18
f 15//15 19//19 18//18
f 15//15 16//16 19//19
f 16//16 20//20 19//19
f 16//16 13//13 20//20
f 13//13 17//17 20//20
f 17//17 18//18 21//21
f 18//18 22//22 21//21
f 18//18 19//19 22//22
f 19//19 23//23 22//22
f 19//19 20//20 23//23
f 20//20 24//24 23//23
f 20//20 17//17 24//24
f 17//17 21//21 24//24
f 21//21 22//22 25//25
f 22//22 26//26 25//25
f 22//22 23//23 26//26
f 23//23 27//27 26//26
f 23//23 24//24 27//27
f 24//24 28//28 27//27
f 24//24 21//21 28//28
f 21//21 25//25 28//28
f 2//2 1//1 29//29
f 3//3 2//2 29//29
f 4//4 3//3 29//29
f 1//1 4//4 29//29
f 25//25 26//26 30//30
f 26//26 27//27 30//30
f 27//27 28//28 30//30
f 28//28 25//25 30//30
g Wick4
usemtl Meche
v -0.04181 0.08125 -0.03627
v -0.08516 -0.02433 0.00466
v 0.00635 -0.02311 -0.07488
v 0.02323 0.08356 0.03854
v -0.0199 -0.02202 0.07974
v 0.06909 -0.02085 -0.00259
v 0.0935 0.08299 0.10968
v 0.05105 -0.02267 0.1517
v 0.13181 -0.02122 0.06129
v 0.1713 0.07663 0.17048
v 0.12961 -0.02916 0.21327
v 0.20127 -0.0269 0.1155
v 0.25108 0.06753 0.22487
v 0.20968 -0.0383 0.26789
v 0.27816 -0.03568 0.16787
v -0.0402 0.01127 -0.0355
v 0.24631 -0.00215 0.22021
vn -0.38272 0.81886 -0.42778
vn -0.89804 -0.43598 0.05872
vn 0.18986 -0.42162 -0.88667
vn -0.02519 0.99961 0.01183
vn -0.63478 -0.49463 0.59363
vn 0.64212 -0.49288 -0.58716
vn -0.00355 0.9984 0.05644
vn -0.59561 -0.48221 0.64243
vn 0.56626 -0.49289 -0.66062
vn 0.04428 0.99635 0.07295
vn -0.54314 -0.49916 0.67516
vn 0.48391 -0.48511 -0.72836
vn 0.51238 0.77622 0.36736
vn 0.02154 -0.48039 0.87679
vn 0.83559 -0.45197 -0.31225
vn -0.65565 -0.02339 -0.7547
vn 0.82265 -0.09386 0.56075
f 31//31 32//32 34//34
f 32//32 35//35 34//34
f 32//32 33//33 35//35
f 33//33 36//36 35//35
f 33//33 31//31 36//36
f 31//31 34//34 36//36
f 34//34 35//35 37//37
f 35//35 38//38 37//37
f 35//35 36//36 38//38
f 36//36 39//39 38//38
f 36//36 34//34 39//39
f 34//34 37//37 39//39
f 37//37 38//38 40//40
f 38//38 41//41 40//40
f 38//38 39//39 41//41
f 39//39 42//42 41//41
f 39//39 37//37 42//42
f 37//37 40//40 42//42
f 40//40 41//41 43//43
f 41//41 44//44 43//43
f 41//41 42//42 44//44
f 42//42 45//45 44//44
f 42//42 40//40 45//45
f 40//40 43//43 45//45
f 32//32 31//31 46//46
f 33//33 32//32 46//46
f 31//31 33//33 46//46
f 43//43 44//44 47//47
f 44//44 45//45 47//47
f 45//45 43//43 47//47
g Wick2
usemtl Meche
v 0.0648 0.05734 -0.02211
v 0.04391 -0.02246 -0.08532
v 0.08725 -0.0397 0.00754
v 0.0275 0.05382 -0.00534
v 0.00698 -0.02594 -0.06872
v 0.04851 -0.04334 0.02494
v -0.01505 0.05071 0.01209
v -0.03466 -0.029 -0.05167
v 0.00251 -0.04669 0.04375
v -0.06769 0.04834 0.03078
v -0.08905 -0.03143 -0.03239
v -0.05506 -0.0492 0.0642
v -0.13034 0.04951 0.05247
v -0.1572 -0.0301 -0.00878
v -0.12392 -0.04786 0.08805
v -0.2059 0.05723 0.07992
v -0.23717 -0.02198 0.02026
v -0.20379 -0.03974 0.11706
v -0.28951 0.06847 0.11084
v -0.32202 -0.01059 0.05164
v -0.28861 -0.02835 0.14843
v 0.06532 -0.00161 -0.0333
v -0.30004 0.00984 0.10363
vn 0.49688 0.86488 -0.07139
vn 0.20714 -0.24168 -0.94799
vn 0.80821 -0.48084 0.33997
vn 0.00078 0.98119 0.19303
vn -0.34384 -0.3539 -0.86978
vn 0.34866 -0.63481 0.68953
vn 0.01549 0.98134 0.19165
vn -0.31524 -0.35516 -0.88005
vn 0.30713 -0.63715 0.70691
vn 0.04716 0.98418 0.17075
vn -0.30477 -0.35921 -0.88209
vn 0.25856 -0.64948 0.71507
vn 0.10993 0.98359 0.14308
vn -0.331 -0.36045 -0.87207
vn 0.21738 -0.65428 0.72434
vn 0.16144 0.97895 0.12484
vn -0.35848 -0.34781 -0.86632
vn 0.19542 -0.64351 0.74007
vn -0.37009 0.88239 0.29057
vn -0.82072 -0.21373 -0.52984
vn -0.35757 -0.46073 0.81232
vn 0.90882 0.08551 -0.40832
vn -0.93055 0.12499 0.34416
f 48//48 49//49 51//51
f 49//49 52//52 51//51
f 49//49 50//50 52//52
f 50//50 53//53 52//52
f 50//50 48//48 53//53
f 48//48 51//51 53//53
f 51//51 52//52 54//54
f 52//52 55//55 54//54
f 52//52 53//53 55//55
f 53//53 56//56 55//55
f 53//53 51//51 56//56
f 51//51 54//54 56//56
f 54//54 55//55 57//57
f 55//55 58//58 57//57
f 55//55 56//56 58//58
f 56//56 59//59 58//58
f 56//56 54//54 59//59
f 54//54 57//57 59//59
f 57//57 58//58 60//60
f 58//58 61//61 60//60
f 58//58 59//59 61//61
f 59//59 62//62 61//61
f 59//59 57//57 62//62
f 57//57 60//60 62//62
f 60//60 61//61 63//63
f 61//61 64//64 63//63
f 61//61 62//62 64//64
f 62//62 65//65 64//64
f 62//62 60//60 65//65
f 60//60 63//63 65//65
f 63//63 64//64 66//66
f 64//64 67//67 66//66
f 64//64 65//65 67//67
f 65//65 68//68 67//67
f 65//65 63//63 68//68
f 63//63 66//66 68//68
f 49//49 48//48 69//69
f 50//50 49//49 69//69
f 48//48 50//50 69//69
f 66//66 67//67 70//70
f 67//67 68//68 70//70
f 68//68 66//66 70//70
g Wick1
usemtl Meche
v -0.10983 0.00908 0.29894
v -0.15326 0.08365 0.29168
v -0.0723 0.08351 0.32242
v -0.09487 0.01396 0.25958
v -0.13798 0.08864 0.25145
v -0.05693 0.08852 0.28198
v -0.07949 0.01785 0.21848
v -0.12174 0.09273 0.20803
v -0.04049 0.09266 0.238
v -0.06298 0.01996 0.17318
v -0.10359 0.09499 0.15824
v -0.02215 0.09493 0.18769
v -0.04731 0.01781 0.12953
v -0.08488 0.09225 0.10607
v -0.00333 0.09217 0.13522
v -0.03311 0.00871 0.0896
v -0.06763 0.08143 0.05756
v 0.01398 0.0813 0.08654
v -0.01831 -0.00482 0.04773
v -0.05179 0.06702 0.01276
v 0.02985 0.06688 0.04167
v -0.1118 0.05875 0.30435
v -0.01342 0.04303 0.03405
vn -0.16294 -0.89038 0.42506
vn -0.88571 0.35058 0.30431
vn 0.4616 0.3483 0.81585
vn 0.03593 -0.99481 -0.09519
vn -0.82454 0.50469 -0.25578
vn 0.79026 0.50122 0.35251
vn 0.0243 -0.99782 -0.06129
vn -0.81795 0.50984 -0.2665
vn 0.7968 0.50654 0.32943
vn 0.0001 -1 0.00187
vn -0.80287 0.51948 -0.29249
vn 0.80534 0.5175 0.28917
vn -0.04297 -0.99169 0.12122
vn -0.77429 0.52807 -0.34875
vn 0.82135 0.52589 0.22098
vn -0.08394 -0.96814 0.23592
vn -0.7627 0.50268 -0.40694
vn 0.84998 0.50004 0.1658
vn 0.09542 -0.95741 -0.27252
vn -0.46138 0.23823 -0.85462
vn 0.89708 0.23607 -0.37351
vn -0.35277 -0.11508 0.92861
vn 0.31903 -0.29046 -0.90214
f 71//71 72//72 74//74
f 72//72 75//75 74//74
f 72//72 73//73 75//75
f 73//73 76//76 75//75
f 73//73 71//71 76//76
f 71//71 74//74 76//76
f 74//74 75//75 77//77
f 75//75 78//78 77//77
f 75//75 76//76 78//78
f 76//76 79//79 78//78
f 76//76 74//74 79//79
f 74//74 77//77 79//79
f 77//77 78//78 80//80
f 78//78 81//81 80//80
f 78//78 79//79 81//81
f 79//79 82//82 81//81
f 79//79 77//77 82//82
f 77//77 80//80 82//82
f 80//80 81//81 83//83
f 81//81 84//84 83//83
f 81//81 82//82 84//84
f 82//82 85//85 84//84
f 82//82 80//80 85//85
f 80//80 83//83 85//85
f 83//83 84//84 86//86
f 84//84 87//87 86//86
f 84//84 85//85 87//87
f 85//85 88//88 87//87
f 85//85 83//83 88//88
f 83//83 86//86 88//88
f 86//86 87//87 89//89
f 87//87 90//90 89//89
f 87//87 88//88 90//90
f 88//88 91//91 90//90
f 88//88 86//86 91//91
f 86//86 89//89 91//91
f 72//72 71//71 92//92
f 73//73 72//72 92//92
f 71//71 73//73 92//92
f 89//89 90//90 93//93
f 90//90 91//91 93//93
f 91//91 89//89 93//93
g Wick5
usemtl Meche
v 0.03448 0.08929 0.01248
v -0.02515 0.0541 0.0101
v -0.02519 0.12291 0.00203
v 0.03939 0.08401 -0.03253
v -0.02029 0.04887 -0.03449
v -0.02029 0.11763 -0.04297
v 0.04405 0.0781 -0.07828
v -0.01575 0.04312 -0.07902
v -0.01563 0.11172 -0.08869
v 0.04816 0.07098 -0.12487
v -0.01181 0.03631 -0.12372
v -0.01144 0.10444 -0.13627
v 0.05241 0.0605 -0.17362
v -0.00776 0.02633 -0.17024
v -0.00694 0.09336 -0.18771
v 0.05756 0.04437 -0.22654
v -0.00276 0.01065 -0.2216
v -0.00157 0.07656 -0.2429
v 0.06319 0.02535 -0.28177
v 0.00282 -0.00822 -0.27635
v 0.00413 0.05731 -0.2988
v -0.00529 0.08876 0.0082
v 0.02338 0.02481 -0.28564
vn 0.76747 0.07514 0.63667
vn -0.47293 -0.65693 0.58718
vn -0.47377 0.77442 0.4193
vn 0.99456 0.01593 0.10297
vn -0.49725 -0.86591 0.05422
vn -0.49438 0.85485 -0.15754
vn 0.9956 0.01753 0.0921
vn -0.49916 -0.86333 0.07415
vn -0.49072 0.85511 -0.16728
vn 0.99625 0.02638 0.08236
vn -0.50974 -0.85304 0.11177
vn -0.48608 0.85092 -0.19915
vn 0.99597 0.03338 0.08329
vn -0.52009 -0.8372 0.16911
vn -0.47996 0.83741 -0.26151
vn 0.9955 0.02213 0.09212
vn -0.51754 -0.82763 0.21722
vn -0.47939 0.81965 -0.31363
vn 0.88127 -0.16873 -0.44147
vn -0.37441 -0.86698 -0.32887
vn -0.34725 0.49623 -0.79572
vn -0.10771 0.11575 0.98742
vn 0.09591 -0.3242 -0.94111
f 94//94 95//95 97//97
f 95//95 98//98 97//97
f 95//95 96//96 98//98
f 96//96 99//99 98//98
f 96//96 94//94 99//99
f 94//94 97//97 99//99
f 97//97 98//98 100//100
f 98//98 101//101 100//100
f 98//98 99//99 101//101
f 99//99 102//102 101//101
f 99//99 97//97 102//102
f 97//97 100//100 102//102
f 100//100 101//101 103//103
f 101//101 104//104 103//103
f 101//101 102//102 104//104
f 102//102 105//105 104//104
f 102//102 100//100 105//105
f 100//100 103//103 105//105
f 103//103 104//104 106//106
f 104//104 107//107 106//106
f 104//104 105//105 107//107
f 105//105 108//108 107//107
f 105//105 103//103 108//108
f 103//103 106//106 108//108
f 106//106 107//107 109//109
f 107//107 110//110 109//109
f 107//107 108//108 110//110
f 108//108 111//111 110//110
f 108//108 106//106 111//111
f 106//106 109//109 111//111
f 109//109 110//110 112//112
f 110//110 113//113 112//112
f 110//110 111//111 113//113
f 111//111 114//114 113//113
f 111//111 109//109 114//114
f 109//109 112//112 114//114
f 95//95 94//94 115//115
f 96//96 95//95 115//115
f 94//94 96//96 115//115
f 112//112 113//113 116//116
f 113//113 114//114 116//116
f 114//114 112//112 116//116
g Wick6
usemtl Meche
v 0.32436 -0.02099 -0.27077
v 0.37857 0.03549 -0.19921
v 0.33499 0.12468 -0.23659
v 0.28077 0.06819 -0.30815
v 0.22686 -0.03353 -0.18701
v 0.28054 0.02289 -0.11501
v 0.23766 0.11216 -0.15298
v 0.18398 0.05574 -0.22499
v 0.14227 -0.04327 -0.11758
v 0.19363 0.01289 -0.04369
v 0.15384 0.10249 -0.08415
v 0.10249 0.04633 -0.15804
v 0.08367 -0.04738 -0.07702
v 0.13023 0.00845 0.00027
v 0.09685 0.09849 -0.04466
v 0.05029 0.04267 -0.12195
v 0.03859 -0.04862 -0.05127
v 0.08222 0.00709 0.02781
v 0.05274 0.09728 -0.01947
v 0.00911 0.04156 -0.09855
v 0.32967 0.05184 -0.25368
v 0.04566 0.02433 -0.03537
vn 0.37799 -0.73684 -0.56052
vn 0.96818 -0.12194 0.21853
vn 0.49373 0.84897 -0.18838
vn -0.09647 0.23406 -0.96742
vn -0.06877 -0.97241 -0.2229
vn 0.64287 -0.21985 0.73375
vn 0.07551 0.97008 0.23076
vn -0.64318 0.21837 -0.73392
vn -0.06662 -0.97608 -0.20696
vn 0.60016 -0.2263 0.7672
vn 0.08973 0.96735 0.23703
vn -0.60007 0.22104 -0.76881
vn -0.07748 -0.97715 -0.19792
vn 0.52759 -0.23157 0.81733
vn 0.09945 0.96768 0.23174
vn -0.52588 0.22603 -0.81998
vn -0.5778 -0.80823 0.11367
vn -0.10246 -0.20214 0.97398
vn -0.42447 0.78062 0.45875
vn -0.89873 0.17462 -0.40223
vn 0.75493 0.0971 -0.64857
vn -0.8681 -0.02391 0.49581
f 117//117 118//118 121//121
f 118//118 122//122 121//121
f 118//118 119//119 122//122
f 119//119 123//123 122//122
f 119//119 120//120 123//123
f 120//120 124//124 123//123
f 120//120 117//117 124//124
f 117//117 121//121 124//124
f 121//121 122//122 125//125
f 122//122 126//126 125//125
f 122//122 123//123 126//126
f 123//123 127//127 126//126
f 123//123 124//124 127//127
f 124//124 128//128 127//127
f 124//124 121//121 128//128
f 121//121 125//125 128//128
f 125//125 126//126 129//129
f 126//126 130//130 129//129
f 126//126 127//127 130//130
f 127//127 131//131 130//130
f 127//127 128//128 131//131
f 128//128 132//132 131//131
f 128//128 125//125 132//132
f 125//125 129//129 132//132
f 129//129 130//130 133//133
f 130//130 134//134 133//133
f 130//130 131//131 134//134
f 131//131 135//135 134//134
f 131//131 132//132 135//135
f 132//132 136//136 135//135
f 132//132 129//129 136//136
f 129//129 133//133 136//136
f 118//118 117//117 137//137
f 119//119 118//118 137//137
f 120//120 119//119 137//137
f 117//117 120//120 137//137
f 133//133 134//134 138//138
f 134//134 135//135 138//138
f 135//135 136//136 138//138
f 136//136 133//133 138//138
