#Produced by Art of Illusion 2.4, Sat May 26 01:45:57 CEST 2007
mtllib bonfire4.mtl
o Wick3
usemtl Meche
v 0.35717 0.09664 0.5022
v 0.4395 0.04792 0.42942
v 0.40245 -0.06197 0.46107
v 0.32012 -0.01324 0.53385
v 0.35006 0.09664 0.49408
v 0.43008 0.04801 0.4187
v 0.39048 -0.06178 0.44749
v 0.31046 -0.01315 0.52287
v 0.34744 0.09677 0.49118
v 0.42057 0.04924 0.40845
v 0.37334 -0.05936 0.4291
v 0.30022 -0.01183 0.51182
v 0.3453 0.09761 0.48914
v 0.41019 0.05284 0.39839
v 0.35437 -0.05292 0.41066
v 0.28948 -0.00815 0.5014
v 0.34149 0.09957 0.48579
v 0.39911 0.05832 0.38869
v 0.3369 -0.04432 0.39537
v 0.27928 -0.00307 0.49247
v 0.33636 0.10279 0.48184
v 0.38837 0.06486 0.38032
v 0.32177 -0.03516 0.38356
v 0.26975 0.00277 0.48508
v 0.32824 0.10828 0.47597
v 0.37828 0.07164 0.37299
v 0.31013 -0.02736 0.3751
v 0.26009 0.00928 0.47807
v 0.37981 0.01734 0.48164
v 0.31919 0.04046 0.42553
vn 0.16181 0.76006 0.62938
vn 0.95451 0.29032 -0.06798
vn 0.59771 -0.76658 0.23473
vn -0.19218 -0.29762 0.93514
vn -0.25724 0.93345 0.25001
vn 0.70775 0.34207 -0.61813
vn 0.2329 -0.93204 -0.2776
vn -0.6992 -0.37783 0.60693
vn -0.16363 0.91874 0.35937
vn 0.71299 0.3251 -0.62125
vn 0.15086 -0.91882 -0.36471
vn -0.70178 -0.39265 0.59441
vn -0.03825 0.87827 0.47663
vn 0.71141 0.33392 -0.61838
vn 0.05583 -0.88601 -0.46029
vn -0.70807 -0.38364 0.59284
vn 0.03849 0.84276 0.53691
vn 0.70405 0.34109 -0.62288
vn -0.02401 -0.84604 -0.53259
vn -0.70519 -0.38138 0.59771
vn 0.09255 0.8083 0.58145
vn 0.69668 0.35432 -0.62378
vn -0.08281 -0.81208 -0.57765
vn -0.69863 -0.37534 0.60912
vn -0.32265 0.92768 0.1879
vn 0.15729 0.57549 -0.80254
vn -0.49677 -0.37608 -0.78217
vn -0.97804 -0.02315 0.20713
vn 0.66024 -0.00633 0.75103
vn -0.71082 0.47835 -0.51567
f 1//1 2//2 5//5
f 2//2 6//6 5//5
f 2//2 3//3 6//6
f 3//3 7//7 6//6
f 3//3 4//4 7//7
f 4//4 8//8 7//7
f 4//4 1//1 8//8
f 1//1 5//5 8//8
f 5//5 6//6 9//9
f 6//6 10//10 9//9
f 6//6 7//7 10//10
f 7//7 11//11 10//10
f 7//7 8//8 11//11
f 8//8 12//12 11//11
f 8//8 5//5 12//12
f 5//5 9//9 12//12
f 9//9 10//10 13//13
f 10//10 14//14 13//13
f 10//10 11//11 14//14
f 11//11 15//15 14//14
f 11//11 12//12 15//15
f 12//12 16//16 15//15
f 12//12 9//9 16//16
f 9//9 13//13 16//16
f 13//13 14//14 17//17
f 14//14 18//18 17//17
f 14//14 15//15 18//18
f 15//15 19//19 18//18
f 15//15 16//16 19//19
f 16//16 20//20 19//19
f 16//16 13//13 20//20
f 13//13 17//17 20//20
f 17//17 18//18 21//21
f 18//18 22//22 21//21
f 18//18 19//19 22//22
f 19//19 23//23 22//22
f 19//19 20//20 23//23
f 20//20 24//24 23//23
f 20//20 17//17 24//24
f 17//17 21//21 24//24
f 21//21 22//22 25//25
f 22//22 26//26 25//25
f 22//22 23//23 26//26
f 23//23 27//27 26//26
f 23//23 24//24 27//27
f 24//24 28//28 27//27
f 24//24 21//21 28//28
f 21//21 25//25 28//28
f 2//2 1//1 29//29
f 3//3 2//2 29//29
f 4//4 3//3 29//29
f 1//1 4//4 29//29
f 25//25 26//26 30//30
f 26//26 27//27 30//30
f 27//27 28//28 30//30
f 28//28 25//25 30//30
o Wick4
usemtl Meche
v 0.73584 -0.02775 0.45497
v 0.62621 -0.07951 0.45379
v 0.64394 0.02352 0.51518
v 0.71204 0.02453 0.37415
v 0.60233 -0.02705 0.37268
v 0.62096 0.07395 0.43711
v 0.68618 0.08251 0.29689
v 0.57623 0.03147 0.29452
v 0.59778 0.12563 0.36779
v 0.65725 0.14943 0.23001
v 0.54702 0.09903 0.22678
v 0.57184 0.18538 0.30819
v 0.62741 0.21927 0.16969
v 0.51708 0.16912 0.16621
v 0.54306 0.25269 0.25012
v 0.66867 -0.02791 0.47465
v 0.56252 0.21369 0.19534
vn 0.93168 -0.29041 0.21826
vn -0.37148 -0.90572 0.20416
vn -0.16072 0.31921 0.93395
vn 0.95318 -0.00342 -0.30237
vn -0.59965 -0.73246 -0.32236
vn -0.34638 0.71609 0.606
vn 0.93784 0.01108 -0.3469
vn -0.60349 -0.70186 -0.3784
vn -0.32142 0.65195 0.68677
vn 0.92799 0.05582 -0.36841
vn -0.63148 -0.65637 -0.41282
vn -0.29006 0.58089 0.76054
vn 0.60066 0.46568 -0.64989
vn -0.71078 -0.13048 -0.6912
vn -0.40196 0.86287 0.3064
vn 0.24003 -0.52707 0.81522
vn -0.30774 0.72014 -0.62185
f 31//31 32//32 34//34
f 32//32 35//35 34//34
f 32//32 33//33 35//35
f 33//33 36//36 35//35
f 33//33 31//31 36//36
f 31//31 34//34 36//36
f 34//34 35//35 37//37
f 35//35 38//38 37//37
f 35//35 36//36 38//38
f 36//36 39//39 38//38
f 36//36 34//34 39//39
f 34//34 37//37 39//39
f 37//37 38//38 40//40
f 38//38 41//41 40//40
f 38//38 39//39 41//41
f 39//39 42//42 41//41
f 39//39 37//37 42//42
f 37//37 40//40 42//42
f 40//40 41//41 43//43
f 41//41 44//44 43//43
f 41//41 42//42 44//44
f 42//42 45//45 44//44
f 42//42 40//40 45//45
f 40//40 43//43 45//45
f 32//32 31//31 46//46
f 33//33 32//32 46//46
f 31//31 33//33 46//46
f 43//43 44//44 47//47
f 44//44 45//45 47//47
f 45//45 43//43 47//47
o Wick2
usemtl Meche
v 0.4593 0.0733 0.59275
v 0.44899 -0.00525 0.52549
v 0.4941 -0.02139 0.61771
v 0.43741 0.06782 0.60251
v 0.42753 -0.01062 0.53506
v 0.47012 -0.02737 0.62836
v 0.41277 0.06253 0.61212
v 0.40394 -0.01566 0.54424
v 0.44038 -0.03375 0.63987
v 0.38333 0.05756 0.62132
v 0.37137 -0.02101 0.55436
v 0.40316 -0.03989 0.65149
v 0.34996 0.05541 0.63135
v 0.32875 -0.02356 0.56723
v 0.35931 -0.04256 0.66472
v 0.30838 0.05864 0.64502
v 0.27965 -0.01991 0.58333
v 0.31021 -0.03891 0.68082
v 0.25987 0.06496 0.66146
v 0.22903 -0.01333 0.60048
v 0.25959 -0.03233 0.69797
v 0.46746 0.01556 0.57865
v 0.2495 0.00643 0.6533
vn 0.38065 0.92439 -0.02455
vn 0.23758 -0.16484 -0.95728
vn 0.86319 -0.38884 0.32202
vn -0.12185 0.96205 0.24414
vn -0.28919 -0.35386 -0.88947
vn 0.41914 -0.6199 0.66336
vn -0.09933 0.96505 0.24252
vn -0.24962 -0.35043 -0.90271
vn 0.3593 -0.63239 0.68628
vn -0.04734 0.97581 0.21344
vn -0.23723 -0.35571 -0.90399
vn 0.28724 -0.65984 0.69434
vn 0.06021 0.98315 0.17258
vn -0.28189 -0.36179 -0.88862
vn 0.21811 -0.67279 0.70696
vn 0.14936 0.97825 0.14396
vn -0.32834 -0.34259 -0.88024
vn 0.17749 -0.65681 0.73287
vn -0.3774 0.87956 0.28973
vn -0.80525 -0.20637 -0.55586
vn -0.38142 -0.46978 0.79613
vn 0.89054 0.22275 -0.39663
vn -0.94001 0.12228 0.31849
f 48//48 49//49 51//51
f 49//49 52//52 51//51
f 49//49 50//50 52//52
f 50//50 53//53 52//52
f 50//50 48//48 53//53
f 48//48 51//51 53//53
f 51//51 52//52 54//54
f 52//52 55//55 54//54
f 52//52 53//53 55//55
f 53//53 56//56 55//55
f 53//53 51//51 56//56
f 51//51 54//54 56//56
f 54//54 55//55 57//57
f 55//55 58//58 57//57
f 55//55 56//56 58//58
f 56//56 59//59 58//58
f 56//56 54//54 59//59
f 54//54 57//57 59//59
f 57//57 58//58 60//60
f 58//58 61//61 60//60
f 58//58 59//59 61//61
f 59//59 62//62 61//61
f 59//59 57//57 62//62
f 57//57 60//60 62//62
f 60//60 61//61 63//63
f 61//61 64//64 63//63
f 61//61 62//62 64//64
f 62//62 65//65 64//64
f 62//62 60//60 65//65
f 60//60 63//63 65//65
f 63//63 64//64 66//66
f 64//64 67//67 66//66
f 64//64 65//65 67//67
f 65//65 68//68 67//67
f 65//65 63//63 68//68
f 63//63 66//66 68//68
f 49//49 48//48 69//69
f 50//50 49//49 69//69
f 48//48 50//50 69//69
f 66//66 67//67 70//70
f 67//67 68//68 70//70
f 68//68 66//66 70//70
o Wick1
usemtl Meche
v 0.61083 0.09925 0.6758
v 0.66301 0.03021 0.67251
v 0.58228 0.02207 0.70277
v 0.6056 0.09598 0.66098
v 0.65704 0.02652 0.65558
v 0.57617 0.0183 0.68545
v 0.60098 0.09397 0.6478
v 0.65042 0.02375 0.63659
v 0.56918 0.01537 0.66541
v 0.59704 0.09339 0.63629
v 0.64253 0.02327 0.61362
v 0.56095 0.01483 0.64144
v 0.59504 0.09407 0.63061
v 0.63321 0.02926 0.58769
v 0.55143 0.02091 0.61494
v 0.59238 0.09927 0.62418
v 0.62434 0.04425 0.56543
v 0.54246 0.03603 0.59243
v 0.58678 0.11229 0.61107
v 0.61698 0.06102 0.54815
v 0.53508 0.05285 0.57508
v 0.61871 0.05051 0.6837
v 0.57961 0.07539 0.5781
vn 0.04963 0.9236 0.38014
vn 0.91793 -0.22582 0.32619
vn -0.42554 -0.36138 0.82965
vn -0.14994 0.98013 -0.1299
vn 0.87615 -0.42325 -0.23068
vn -0.72707 -0.58395 0.36106
vn -0.12583 0.9905 -0.0554
vn 0.85981 -0.43829 -0.26196
vn -0.73935 -0.59977 0.306
vn -0.07868 0.99474 0.06564
vn 0.82195 -0.45892 -0.33731
vn -0.75729 -0.62107 0.20196
vn 0.03032 0.92483 0.37918
vn 0.75884 -0.44288 -0.47751
vn -0.79889 -0.60011 0.04043
vn 0.12645 0.76689 0.62919
vn 0.73693 -0.34437 -0.58167
vn -0.86182 -0.50447 -0.05259
vn -0.04201 0.98415 0.17227
vn 0.45976 0.1302 -0.87844
vn -0.90279 -0.00549 -0.43004
vn 0.32576 0.20229 0.92356
vn -0.29169 0.66814 -0.68447
f 71//71 72//72 74//74
f 72//72 75//75 74//74
f 72//72 73//73 75//75
f 73//73 76//76 75//75
f 73//73 71//71 76//76
f 71//71 74//74 76//76
f 74//74 75//75 77//77
f 75//75 78//78 77//77
f 75//75 76//76 78//78
f 76//76 79//79 78//78
f 76//76 74//74 79//79
f 74//74 77//77 79//79
f 77//77 78//78 80//80
f 78//78 81//81 80//80
f 78//78 79//79 81//81
f 79//79 82//82 81//81
f 79//79 77//77 82//82
f 77//77 80//80 82//82
f 80//80 81//81 83//83
f 81//81 84//84 83//83
f 81//81 82//82 84//84
f 82//82 85//85 84//84
f 82//82 80//80 85//85
f 80//80 83//83 85//85
f 83//83 84//84 86//86
f 84//84 87//87 86//86
f 84//84 85//85 87//87
f 85//85 88//88 87//87
f 85//85 83//83 88//88
f 83//83 86//86 88//88
f 86//86 87//87 89//89
f 87//87 90//90 89//89
f 87//87 88//88 90//90
f 88//88 91//91 90//90
f 88//88 86//86 91//91
f 86//86 89//89 91//91
f 72//72 71//71 92//92
f 73//73 72//72 92//92
f 71//71 73//73 92//92
f 89//89 90//90 93//93
f 90//90 91//91 93//93
f 91//91 89//89 93//93
o Wick5
usemtl Meche
v 0.50047 0.09761 0.55915
v 0.44127 0.07199 0.53388
v 0.45653 0.139 0.52516
v 0.52149 0.08771 0.51994
v 0.4621 0.06219 0.49503
v 0.47755 0.12911 0.48595
v 0.54247 0.07717 0.47995
v 0.48252 0.05193 0.45611
v 0.49851 0.11857 0.44599
v 0.56306 0.06545 0.439
v 0.50226 0.04071 0.41681
v 0.51954 0.1066 0.40417
v 0.58402 0.05022 0.39619
v 0.52227 0.02618 0.37597
v 0.54166 0.0905 0.35901
v 0.60643 0.02891 0.35002
v 0.54401 0.00549 0.33116
v 0.56502 0.0683 0.31085
v 0.62964 0.00449 0.30198
v 0.56703 -0.01874 0.28353
v 0.58852 0.04359 0.26223
v 0.46609 0.10286 0.5394
v 0.59507 0.00978 0.28258
vn 0.45934 0.01097 0.88819
vn -0.77214 -0.52194 0.36246
vn -0.45466 0.87206 0.18107
vn 0.86188 -0.12913 0.49039
vn -0.62366 -0.77048 -0.13198
vn -0.23459 0.90392 -0.35762
vn 0.86733 -0.12869 0.48081
vn -0.63272 -0.76587 -0.11453
vn -0.22738 0.90278 -0.36509
vn 0.87329 -0.12097 0.47195
vn -0.65515 -0.75074 -0.08459
vn -0.21141 0.89517 -0.39238
vn 0.8739 -0.11392 0.47257
vn -0.68397 -0.7286 -0.03636
vn -0.18414 0.87544 -0.44687
vn 0.86806 -0.12411 0.4807
vn -0.69863 -0.71543 0.0087
vn -0.1666 0.85329 -0.49411
vn 0.93872 -0.34096 -0.05051
vn -0.36367 -0.82409 -0.43431
vn 0.08335 0.47238 -0.87744
vn -0.46119 0.21699 0.86036
vn 0.39567 -0.41624 -0.81865
f 94//94 95//95 97//97
f 95//95 98//98 97//97
f 95//95 96//96 98//98
f 96//96 99//99 98//98
f 96//96 94//94 99//99
f 94//94 97//97 99//99
f 97//97 98//98 100//100
f 98//98 101//101 100//100
f 98//98 99//99 101//101
f 99//99 102//102 101//101
f 99//99 97//97 102//102
f 97//97 100//100 102//102
f 100//100 101//101 103//103
f 101//101 104//104 103//103
f 101//101 102//102 104//104
f 102//102 105//105 104//104
f 102//102 100//100 105//105
f 100//100 103//103 105//105
f 103//103 104//104 106//106
f 104//104 107//107 106//106
f 104//104 105//105 107//107
f 105//105 108//108 107//107
f 105//105 103//103 108//108
f 103//103 106//106 108//108
f 106//106 107//107 109//109
f 107//107 110//110 109//109
f 107//107 108//108 110//110
f 108//108 111//111 110//110
f 108//108 106//106 111//111
f 106//106 109//109 111//111
f 109//109 110//110 112//112
f 110//110 113//113 112//112
f 110//110 111//111 113//113
f 111//111 114//114 113//113
f 111//111 109//109 114//114
f 109//109 112//112 114//114
f 95//95 94//94 115//115
f 96//96 95//95 115//115
f 94//94 96//96 115//115
f 112//112 113//113 116//116
f 113//113 114//114 116//116
f 114//114 112//112 116//116
o Wick6
usemtl Meche
v 0.80069 -0.02071 0.6948
v 0.85616 0.03592 0.76527
v 0.81383 0.12525 0.72681
v 0.75836 0.06862 0.65634
v 0.76059 -0.02472 0.72958
v 0.8148 0.03178 0.80112
v 0.77417 0.12127 0.76123
v 0.71996 0.06476 0.68968
v 0.7242 -0.02725 0.75782
v 0.7727 0.02888 0.83363
v 0.73972 0.11883 0.78812
v 0.69121 0.0627 0.71232
v 0.69568 -0.02666 0.77226
v 0.73246 0.0295 0.85438
v 0.7152 0.11933 0.80069
v 0.67842 0.06317 0.71856
v 0.67251 -0.02451 0.77908
v 0.70257 0.0321 0.86359
v 0.69425 0.1213 0.80681
v 0.66418 0.06469 0.7223
v 0.80726 0.05227 0.7108
v 0.68338 0.04839 0.79294
vn 0.36325 -0.75091 -0.55153
vn 0.96712 -0.13444 0.21587
vn 0.5064 0.83806 -0.20302
vn -0.09769 0.22156 -0.97024
vn -0.08318 -0.97603 -0.20113
vn 0.62884 -0.2217 0.74526
vn 0.0984 0.97038 0.22064
vn -0.63282 0.21775 -0.74305
vn -0.08302 -0.9832 -0.16258
vn 0.52684 -0.23133 0.81788
vn 0.12914 0.9626 0.23816
vn -0.52063 0.21757 -0.82559
vn -0.11525 -0.98212 -0.14883
vn 0.35703 -0.23063 0.90517
vn 0.14802 0.96221 0.22855
vn -0.32547 0.21815 -0.92005
vn -0.66939 -0.74281 0.01214
vn -0.33709 -0.12901 0.93259
vn -0.43351 0.84577 0.31103
vn -0.75147 0.23346 -0.61708
vn 0.75317 0.07547 -0.65348
vn -0.95577 0.0892 0.28026
f 117//117 118//118 121//121
f 118//118 122//122 121//121
f 118//118 119//119 122//122
f 119//119 123//123 122//122
f 119//119 120//120 123//123
f 120//120 124//124 123//123
f 120//120 117//117 124//124
f 117//117 121//121 124//124
f 121//121 122//122 125//125
f 122//122 126//126 125//125
f 122//122 123//123 126//126
f 123//123 127//127 126//126
f 123//123 124//124 127//127
f 124//124 128//128 127//127
f 124//124 121//121 128//128
f 121//121 125//125 128//128
f 125//125 126//126 129//129
f 126//126 130//130 129//129
f 126//126 127//127 130//130
f 127//127 131//131 130//130
f 127//127 128//128 131//131
f 128//128 132//132 131//131
f 128//128 125//125 132//132
f 125//125 129//129 132//132
f 129//129 130//130 133//133
f 130//130 134//134 133//133
f 130//130 131//131 134//134
f 131//131 135//135 134//134
f 131//131 132//132 135//135
f 132//132 136//136 135//135
f 132//132 129//129 136//136
f 129//129 133//133 136//136
f 118//118 117//117 137//137
f 119//119 118//118 137//137
f 120//120 119//119 137//137
f 117//117 120//120 137//137
f 133//133 134//134 138//138
f 134//134 135//135 138//138
f 135//135 136//136 138//138
f 136//136 133//133 138//138
o Wick6_1
usemtl Meche
v 0.84645 -0.03824 0.19798
v 0.85239 0.01839 0.28746
v 0.83943 0.10773 0.23177
v 0.83349 0.05109 0.14229
v 0.79613 -0.04198 0.20367
v 0.79924 0.01446 0.29342
v 0.78968 0.10403 0.23742
v 0.78657 0.04759 0.14767
v 0.75198 -0.04396 0.20471
v 0.74308 0.01201 0.29437
v 0.74799 0.1021 0.23861
v 0.75689 0.04613 0.14895
v 0.7213 -0.04225 0.19606
v 0.6922 0.01444 0.28086
v 0.72126 0.10357 0.23125
v 0.75036 0.04689 0.14646
v 0.69887 -0.03877 0.18304
v 0.661 0.01897 0.26355
v 0.70052 0.10681 0.21915
v 0.73839 0.04908 0.13863
v 0.84294 0.03474 0.21487
v 0.69969 0.03402 0.20109
vn 0.61029 -0.75206 -0.24891
vn 0.67457 -0.13547 0.72568
vn 0.53385 0.83714 0.11917
vn 0.46877 0.22048 -0.85536
vn 0.04313 -0.97773 -0.2054
vn 0.0763 -0.22268 0.9719
vn -0.04205 0.96854 0.24526
vn -0.08918 0.21773 -0.97193
vn 0.01329 -0.98726 -0.15857
vn -0.11671 -0.23264 0.96553
vn -0.03402 0.95526 0.2938
vn 0.16557 0.21624 -0.9622
vn -0.02285 -0.98343 -0.17984
vn -0.3831 -0.2228 0.89644
vn -0.02066 0.95754 0.28757
vn 0.46781 0.21185 -0.85806
vn -0.50417 -0.71636 -0.48233
vn -0.91195 -0.0912 0.40004
vn -0.48384 0.87019 -0.09307
vn -0.04992 0.24638 -0.96789
vn 0.99093 0.07369 -0.11236
vn -0.85659 0.13332 -0.49848
f 139//139 140//140 143//143
f 140//140 144//144 143//143
f 140//140 141//141 144//144
f 141//141 145//145 144//144
f 141//141 142//142 145//145
f 142//142 146//146 145//145
f 142//142 139//139 146//146
f 139//139 143//143 146//146
f 143//143 144//144 147//147
f 144//144 148//148 147//147
f 144//144 145//145 148//148
f 145//145 149//149 148//148
f 145//145 146//146 149//149
f 146//146 150//150 149//149
f 146//146 143//143 150//150
f 143//143 147//147 150//150
f 147//147 148//148 151//151
f 148//148 152//152 151//151
f 148//148 149//149 152//152
f 149//149 153//153 152//152
f 149//149 150//150 153//153
f 150//150 154//154 153//153
f 150//150 147//147 154//154
f 147//147 151//151 154//154
f 151//151 152//152 155//155
f 152//152 156//156 155//155
f 152//152 153//153 156//156
f 153//153 157//157 156//156
f 153//153 154//154 157//157
f 154//154 158//158 157//157
f 154//154 151//151 158//158
f 151//151 155//155 158//158
f 140//140 139//139 159//159
f 141//141 140//140 159//159
f 142//142 141//141 159//159
f 139//139 142//142 159//159
f 155//155 156//156 160//160
f 156//156 157//157 160//160
f 157//157 158//158 160//160
f 158//158 155//155 160//160
o Wick2_1
usemtl Meche
v 0.82967 0.0733 0.49277
v 0.81936 -0.00525 0.4255
v 0.86447 -0.02139 0.51772
v 0.80778 0.06782 0.50253
v 0.79791 -0.01062 0.43507
v 0.84049 -0.02737 0.52838
v 0.78315 0.06253 0.51214
v 0.77432 -0.01566 0.44425
v 0.81076 -0.03375 0.53988
v 0.7537 0.05756 0.52134
v 0.74175 -0.02101 0.45438
v 0.77354 -0.03989 0.5515
v 0.72034 0.05541 0.53137
v 0.69913 -0.02356 0.46724
v 0.72969 -0.04256 0.56474
v 0.67875 0.05864 0.54503
v 0.65003 -0.01991 0.48335
v 0.68059 -0.03891 0.58084
v 0.63025 0.06496 0.56147
v 0.5994 -0.01333 0.5005
v 0.62996 -0.03233 0.59799
v 0.83783 0.01556 0.47866
v 0.61987 0.00643 0.55332
vn 0.38065 0.92439 -0.02455
vn 0.23758 -0.16484 -0.95728
vn 0.86319 -0.38884 0.32202
vn -0.12185 0.96205 0.24414
vn -0.28919 -0.35386 -0.88947
vn 0.41914 -0.6199 0.66336
vn -0.09933 0.96505 0.24252
vn -0.24962 -0.35043 -0.90271
vn 0.3593 -0.63239 0.68628
vn -0.04734 0.97581 0.21344
vn -0.23723 -0.35571 -0.90399
vn 0.28724 -0.65984 0.69434
vn 0.06021 0.98315 0.17258
vn -0.28189 -0.36179 -0.88862
vn 0.21811 -0.67279 0.70696
vn 0.14936 0.97825 0.14396
vn -0.32834 -0.34259 -0.88024
vn 0.17749 -0.65681 0.73287
vn -0.3774 0.87956 0.28973
vn -0.80525 -0.20637 -0.55586
vn -0.38142 -0.46978 0.79613
vn 0.89054 0.22275 -0.39663
vn -0.94001 0.12228 0.31849
f 161//161 162//162 164//164
f 162//162 165//165 164//164
f 162//162 163//163 165//165
f 163//163 166//166 165//165
f 163//163 161//161 166//166
f 161//161 164//164 166//166
f 164//164 165//165 167//167
f 165//165 168//168 167//167
f 165//165 166//166 168//168
f 166//166 169//169 168//168
f 166//166 164//164 169//169
f 164//164 167//167 169//169
f 167//167 168//168 170//170
f 168//168 171//171 170//170
f 168//168 169//169 171//171
f 169//169 172//172 171//171
f 169//169 167//167 172//172
f 167//167 170//170 172//172
f 170//170 171//171 173//173
f 171//171 174//174 173//173
f 171//171 172//172 174//174
f 172//172 175//175 174//174
f 172//172 170//170 175//175
f 170//170 173//173 175//175
f 173//173 174//174 176//176
f 174//174 177//177 176//176
f 174//174 175//175 177//177
f 175//175 178//178 177//177
f 175//175 173//173 178//178
f 173//173 176//176 178//178
f 176//176 177//177 179//179
f 177//177 180//180 179//179
f 177//177 178//178 180//180
f 178//178 181//181 180//180
f 178//178 176//176 181//181
f 176//176 179//179 181//181
f 162//162 161//161 182//182
f 163//163 162//162 182//182
f 161//161 163//163 182//182
f 179//179 180//180 183//183
f 180//180 181//181 183//183
f 181//181 179//179 183//183
o Wick1_1
usemtl Meche
v 0.49791 0.09925 0.84246
v 0.55008 0.03021 0.83918
v 0.46935 0.02207 0.86944
v 0.49267 0.09598 0.82764
v 0.54411 0.02652 0.82224
v 0.46324 0.0183 0.85212
v 0.48806 0.09397 0.81447
v 0.53749 0.02375 0.80326
v 0.45625 0.01537 0.83208
v 0.48411 0.09339 0.80296
v 0.5296 0.02327 0.78029
v 0.44802 0.01483 0.80811
v 0.48211 0.09407 0.79728
v 0.52028 0.02926 0.75435
v 0.4385 0.02091 0.7816
v 0.47945 0.09927 0.79084
v 0.51141 0.04425 0.73209
v 0.42953 0.03603 0.75909
v 0.47385 0.11229 0.77773
v 0.50405 0.06102 0.71481
v 0.42215 0.05285 0.74175
v 0.50578 0.05051 0.85036
v 0.46668 0.07539 0.74476
vn 0.04963 0.9236 0.38014
vn 0.91793 -0.22582 0.32619
vn -0.42554 -0.36138 0.82965
vn -0.14994 0.98013 -0.1299
vn 0.87615 -0.42325 -0.23068
vn -0.72707 -0.58395 0.36106
vn -0.12583 0.9905 -0.0554
vn 0.85981 -0.43829 -0.26196
vn -0.73935 -0.59977 0.306
vn -0.07868 0.99474 0.06564
vn 0.82195 -0.45892 -0.33731
vn -0.75729 -0.62107 0.20196
vn 0.03032 0.92483 0.37918
vn 0.75884 -0.44288 -0.47751
vn -0.79889 -0.60011 0.04043
vn 0.12645 0.76689 0.62919
vn 0.73693 -0.34437 -0.58167
vn -0.86182 -0.50447 -0.05259
vn -0.04201 0.98415 0.17227
vn 0.45976 0.1302 -0.87844
vn -0.90279 -0.00549 -0.43004
vn 0.32576 0.20229 0.92356
vn -0.29169 0.66814 -0.68447
f 184//184 185//185 187//187
f 185//185 188//188 187//187
f 185//185 186//186 188//188
f 186//186 189//189 188//188
f 186//186 184//184 189//189
f 184//184 187//187 189//189
f 187//187 188//188 190//190
f 188//188 191//191 190//190
f 188//188 189//189 191//191
f 189//189 192//192 191//191
f 189//189 187//187 192//192
f 187//187 190//190 192//192
f 190//190 191//191 193//193
f 191//191 194//194 193//193
f 191//191 192//192 194//194
f 192//192 195//195 194//194
f 192//192 190//190 195//195
f 190//190 193//193 195//195
f 193//193 194//194 196//196
f 194//194 197//197 196//196
f 194//194 195//195 197//197
f 195//195 198//198 197//197
f 195//195 193//193 198//198
f 193//193 196//196 198//198
f 196//196 197//197 199//199
f 197//197 200//200 199//199
f 197//197 198//198 200//200
f 198//198 201//201 200//200
f 198//198 196//196 201//201
f 196//196 199//199 201//201
f 199//199 200//200 202//202
f 200//200 203//203 202//202
f 200//200 201//201 203//203
f 201//201 204//204 203//203
f 201//201 199//199 204//204
f 199//199 202//202 204//204
f 185//185 184//184 205//205
f 186//186 185//185 205//205
f 184//184 186//186 205//205
f 202//202 203//203 206//206
f 203//203 204//204 206//206
f 204//204 202//202 206//206
o Wick3_1
usemtl Meche
v 0.4296 0.09664 0.26361
v 0.51193 0.04792 0.19082
v 0.47488 -0.06197 0.22247
v 0.39255 -0.01324 0.29525
v 0.42249 0.09664 0.25548
v 0.50251 0.04801 0.1801
v 0.46292 -0.06178 0.2089
v 0.38289 -0.01315 0.28427
v 0.41987 0.09677 0.25258
v 0.493 0.04924 0.16985
v 0.44578 -0.05936 0.1905
v 0.37265 -0.01183 0.27323
v 0.41773 0.09761 0.25054
v 0.48262 0.05284 0.1598
v 0.4268 -0.05292 0.17206
v 0.36192 -0.00815 0.2628
v 0.41392 0.09957 0.24719
v 0.47155 0.05832 0.15009
v 0.40933 -0.04432 0.15677
v 0.35171 -0.00307 0.25387
v 0.40879 0.10279 0.24324
v 0.46081 0.06486 0.14172
v 0.3942 -0.03516 0.14496
v 0.34219 0.00277 0.24648
v 0.40067 0.10828 0.23737
v 0.45072 0.07164 0.1344
v 0.38257 -0.02736 0.1365
v 0.33252 0.00928 0.23947
v 0.45224 0.01734 0.24304
v 0.39162 0.04046 0.18693
vn 0.16181 0.76006 0.62938
vn 0.95451 0.29032 -0.06798
vn 0.59771 -0.76658 0.23473
vn -0.19218 -0.29762 0.93514
vn -0.25724 0.93345 0.25001
vn 0.70775 0.34207 -0.61813
vn 0.2329 -0.93204 -0.2776
vn -0.6992 -0.37783 0.60693
vn -0.16363 0.91874 0.35937
vn 0.71299 0.3251 -0.62125
vn 0.15086 -0.91882 -0.36471
vn -0.70178 -0.39265 0.59441
vn -0.03825 0.87827 0.47663
vn 0.71141 0.33392 -0.61838
vn 0.05583 -0.88601 -0.46029
vn -0.70807 -0.38364 0.59284
vn 0.03849 0.84276 0.53691
vn 0.70405 0.34109 -0.62288
vn -0.02401 -0.84604 -0.53259
vn -0.70519 -0.38138 0.59771
vn 0.09255 0.8083 0.58145
vn 0.69668 0.35432 -0.62378
vn -0.08281 -0.81208 -0.57765
vn -0.69863 -0.37534 0.60912
vn -0.32265 0.92768 0.1879
vn 0.15729 0.57549 -0.80254
vn -0.49677 -0.37608 -0.78217
vn -0.97804 -0.02315 0.20713
vn 0.66024 -0.00633 0.75103
vn -0.71082 0.47835 -0.51567
f 207//207 208//208 211//211
f 208//208 212//212 211//211
f 208//208 209//209 212//212
f 209//209 213//213 212//212
f 209//209 210//210 213//213
f 210//210 214//214 213//213
f 210//210 207//207 214//214
f 207//207 211//211 214//214
f 211//211 212//212 215//215
f 212//212 216//216 215//215
f 212//212 213//213 216//216
f 213//213 217//217 216//216
f 213//213 214//214 217//217
f 214//214 218//218 217//217
f 214//214 211//211 218//218
f 211//211 215//215 218//218
f 215//215 216//216 219//219
f 216//216 220//220 219//219
f 216//216 217//217 220//220
f 217//217 221//221 220//220
f 217//217 218//218 221//221
f 218//218 222//222 221//221
f 218//218 215//215 222//222
f 215//215 219//219 222//222
f 219//219 220//220 223//223
f 220//220 224//224 223//223
f 220//220 221//221 224//224
f 221//221 225//225 224//224
f 221//221 222//222 225//225
f 222//222 226//226 225//225
f 222//222 219//219 226//226
f 219//219 223//223 226//226
f 223//223 224//224 227//227
f 224//224 228//228 227//227
f 224//224 225//225 228//228
f 225//225 229//229 228//228
f 225//225 226//226 229//229
f 226//226 230//230 229//229
f 226//226 223//223 230//230
f 223//223 227//227 230//230
f 227//227 228//228 231//231
f 228//228 232//232 231//231
f 228//228 229//229 232//232
f 229//229 233//233 232//232
f 229//229 230//230 233//233
f 230//230 234//234 233//233
f 230//230 227//227 234//234
f 227//227 231//231 234//234
f 208//208 207//207 235//235
f 209//209 208//208 235//235
f 210//210 209//209 235//235
f 207//207 210//210 235//235
f 231//231 232//232 236//236
f 232//232 233//233 236//236
f 233//233 234//234 236//236
f 234//234 231//231 236//236
