#Produced by Art of Illusion 2.3, Wed Jan 03 17:57:36 CET 2007
mtllib bonfire2.mtl
g Wick3
usemtl Meche
v 0.42588 0.07744 0.46524
v 0.50689 0.02872 0.39099
v 0.46877 -0.08113 0.42148
v 0.38776 -0.03241 0.49574
v 0.40397 0.0782 0.44078
v 0.483 0.02961 0.36434
v 0.44271 -0.08011 0.39244
v 0.36368 -0.03151 0.46887
v 0.38537 0.0806 0.42091
v 0.45852 0.03295 0.33826
v 0.41177 -0.07571 0.35953
v 0.33862 -0.02806 0.44218
v 0.36618 0.0868 0.40225
v 0.43232 0.04131 0.31274
v 0.37828 -0.0651 0.32688
v 0.31214 -0.01961 0.4164
v 0.34564 0.09605 0.38388
v 0.40555 0.05332 0.28881
v 0.34599 -0.05068 0.29803
v 0.28608 -0.00794 0.3931
v 0.32503 0.10742 0.36719
v 0.38006 0.06731 0.26815
v 0.31663 -0.03463 0.27419
v 0.2616 0.00548 0.37324
v 0.30231 0.12115 0.34981
v 0.35561 0.08205 0.24942
v 0.2908 -0.01908 0.2544
v 0.23751 0.02002 0.35479
v 0.44732 -0.00185 0.44336
v 0.29656 0.05104 0.3021
vn 0.17884 0.74769 0.63951
vn 0.95738 0.27938 -0.0733
vn 0.59094 -0.77637 0.2192
vn -0.1869 -0.30815 0.9328
vn -0.23059 0.93133 0.28188
vn 0.70526 0.34466 -0.61953
vn 0.22587 -0.93149 -0.28515
vn -0.69821 -0.37491 0.60988
vn -0.15819 0.91941 0.36008
vn 0.70976 0.33015 -0.62228
vn 0.15456 -0.92013 -0.35982
vn -0.70013 -0.38731 0.59984
vn -0.06941 0.89306 0.44456
vn 0.70854 0.33687 -0.62007
vn 0.07196 -0.89363 -0.443
vn -0.70498 -0.37961 0.59909
vn 0.002 0.86288 0.5054
vn 0.70255 0.34266 -0.62371
vn 0.00336 -0.86219 -0.50657
vn -0.70238 -0.37821 0.60301
vn 0.05159 0.83528 0.54741
vn 0.69629 0.35404 -0.62437
vn -0.04793 -0.83541 -0.54753
vn -0.69722 -0.37307 0.61213
vn -0.358 0.92285 0.14206
vn 0.15383 0.5472 -0.82275
vn -0.46845 -0.42437 -0.7749
vn -0.98067 -0.04849 0.18959
vn 0.66729 -0.02492 0.74438
vn -0.71608 0.4319 -0.54835
f 1//1 2//2 5//5
f 2//2 6//6 5//5
f 2//2 3//3 6//6
f 3//3 7//7 6//6
f 3//3 4//4 7//7
f 4//4 8//8 7//7
f 4//4 1//1 8//8
f 1//1 5//5 8//8
f 5//5 6//6 9//9
f 6//6 10//10 9//9
f 6//6 7//7 10//10
f 7//7 11//11 10//10
f 7//7 8//8 11//11
f 8//8 12//12 11//11
f 8//8 5//5 12//12
f 5//5 9//9 12//12
f 9//9 10//10 13//13
f 10//10 14//14 13//13
f 10//10 11//11 14//14
f 11//11 15//15 14//14
f 11//11 12//12 15//15
f 12//12 16//16 15//15
f 12//12 9//9 16//16
f 9//9 13//13 16//16
f 13//13 14//14 17//17
f 14//14 18//18 17//17
f 14//14 15//15 18//18
f 15//15 19//19 18//18
f 15//15 16//16 19//19
f 16//16 20//20 19//19
f 16//16 13//13 20//20
f 13//13 17//17 20//20
f 17//17 18//18 21//21
f 18//18 22//22 21//21
f 18//18 19//19 22//22
f 19//19 23//23 22//22
f 19//19 20//20 23//23
f 20//20 24//24 23//23
f 20//20 17//17 24//24
f 17//17 21//21 24//24
f 21//21 22//22 25//25
f 22//22 26//26 25//25
f 22//22 23//23 26//26
f 23//23 27//27 26//26
f 23//23 24//24 27//27
f 24//24 28//28 27//27
f 24//24 21//21 28//28
f 21//21 25//25 28//28
f 2//2 1//1 29//29
f 3//3 2//2 29//29
f 4//4 3//3 29//29
f 1//1 4//4 29//29
f 25//25 26//26 30//30
f 26//26 27//27 30//30
f 27//27 28//28 30//30
f 28//28 25//25 30//30
g Wick4
usemtl Meche
v 0.79723 -0.02775 0.61838
v 0.68759 -0.07951 0.61719
v 0.70533 0.02352 0.67859
v 0.77342 0.02453 0.53756
v 0.6637 -0.02705 0.53609
v 0.68236 0.07395 0.60051
v 0.74756 0.08251 0.4603
v 0.63747 0.03146 0.45797
v 0.65931 0.12564 0.53114
v 0.71863 0.14943 0.39341
v 0.60814 0.09901 0.39029
v 0.63349 0.1854 0.4715
v 0.68879 0.21927 0.3331
v 0.57818 0.1691 0.32973
v 0.60473 0.25271 0.41342
v 0.73005 -0.02791 0.63805
v 0.6239 0.21369 0.35875
vn 0.93167 -0.29043 0.21826
vn -0.37142 -0.90574 0.20417
vn -0.16073 0.31921 0.93395
vn 0.95319 -0.0036 -0.30235
vn -0.5995 -0.73272 -0.32205
vn -0.34616 0.71606 0.60616
vn 0.93771 0.0106 -0.34727
vn -0.60438 -0.70157 -0.37752
vn -0.3198 0.65293 0.68659
vn 0.9277 0.05512 -0.36924
vn -0.63361 -0.65541 -0.41108
vn -0.2872 0.58265 0.76028
vn 0.60043 0.46497 -0.65061
vn -0.71264 -0.12989 -0.6894
vn -0.39953 0.86405 0.30627
vn 0.24003 -0.52707 0.81522
vn -0.30774 0.72014 -0.62185
f 31//31 32//32 34//34
f 32//32 35//35 34//34
f 32//32 33//33 35//35
f 33//33 36//36 35//35
f 33//33 31//31 36//36
f 31//31 34//34 36//36
f 34//34 35//35 37//37
f 35//35 38//38 37//37
f 35//35 36//36 38//38
f 36//36 39//39 38//38
f 36//36 34//34 39//39
f 34//34 37//37 39//39
f 37//37 38//38 40//40
f 38//38 41//41 40//40
f 38//38 39//39 41//41
f 39//39 42//42 41//41
f 39//39 37//37 42//42
f 37//37 40//40 42//42
f 40//40 41//41 43//43
f 41//41 44//44 43//43
f 41//41 42//42 44//44
f 42//42 45//45 44//44
f 42//42 40//40 45//45
f 40//40 43//43 45//45
f 32//32 31//31 46//46
f 33//33 32//32 46//46
f 31//31 33//33 46//46
f 43//43 44//44 47//47
f 44//44 45//45 47//47
f 45//45 43//43 47//47
g Wick2
usemtl Meche
v 0.57768 0.05538 0.46709
v 0.55679 -0.02442 0.40388
v 0.60013 -0.04166 0.49674
v 0.54038 0.05187 0.48386
v 0.51986 -0.0279 0.42048
v 0.56139 -0.0453 0.51414
v 0.49783 0.04875 0.50129
v 0.47822 -0.03096 0.43753
v 0.5154 -0.04864 0.53295
v 0.4452 0.04638 0.51998
v 0.42383 -0.03339 0.45681
v 0.45782 -0.05116 0.5534
v 0.38254 0.04755 0.54167
v 0.35568 -0.03206 0.48042
v 0.38896 -0.04981 0.57725
v 0.30698 0.05528 0.56912
v 0.27571 -0.02394 0.50946
v 0.30909 -0.0417 0.60626
v 0.22338 0.06651 0.60004
v 0.19086 -0.01254 0.54084
v 0.22427 -0.03031 0.63763
v 0.5782 -0.00357 0.4559
v 0.21284 0.00789 0.59283
vn 0.49688 0.86488 -0.07139
vn 0.20714 -0.24168 -0.94799
vn 0.80821 -0.48084 0.33997
vn 0.00078 0.98119 0.19303
vn -0.34384 -0.3539 -0.86978
vn 0.34866 -0.63481 0.68953
vn 0.01549 0.98134 0.19165
vn -0.31524 -0.35516 -0.88005
vn 0.30713 -0.63715 0.70691
vn 0.04716 0.98418 0.17075
vn -0.30477 -0.35921 -0.88209
vn 0.25856 -0.64948 0.71507
vn 0.10993 0.98359 0.14308
vn -0.331 -0.36045 -0.87207
vn 0.21738 -0.65428 0.72434
vn 0.16144 0.97895 0.12484
vn -0.35848 -0.34781 -0.86632
vn 0.19542 -0.64351 0.74007
vn -0.37009 0.88239 0.29057
vn -0.82072 -0.21373 -0.52984
vn -0.35757 -0.46073 0.81232
vn 0.90882 0.08551 -0.40832
vn -0.93055 0.12499 0.34416
f 48//48 49//49 51//51
f 49//49 52//52 51//51
f 49//49 50//50 52//52
f 50//50 53//53 52//52
f 50//50 48//48 53//53
f 48//48 51//51 53//53
f 51//51 52//52 54//54
f 52//52 55//55 54//54
f 52//52 53//53 55//55
f 53//53 56//56 55//55
f 53//53 51//51 56//56
f 51//51 54//54 56//56
f 54//54 55//55 57//57
f 55//55 58//58 57//57
f 55//55 56//56 58//58
f 56//56 59//59 58//58
f 56//56 54//54 59//59
f 54//54 57//57 59//59
f 57//57 58//58 60//60
f 58//58 61//61 60//60
f 58//58 59//59 61//61
f 59//59 62//62 61//61
f 59//59 57//57 62//62
f 57//57 60//60 62//62
f 60//60 61//61 63//63
f 61//61 64//64 63//63
f 61//61 62//62 64//64
f 62//62 65//65 64//64
f 62//62 60//60 65//65
f 60//60 63//63 65//65
f 63//63 64//64 66//66
f 64//64 67//67 66//66
f 64//64 65//65 67//67
f 65//65 68//68 67//67
f 65//65 63//63 68//68
f 63//63 66//66 68//68
f 49//49 48//48 69//69
f 50//50 49//49 69//69
f 48//48 50//50 69//69
f 66//66 67//67 70//70
f 67//67 68//68 70//70
f 68//68 66//66 70//70
g Wick1
usemtl Meche
v 0.51233 0.08673 0.84507
v 0.56072 0.01642 0.83039
v 0.47966 0.00786 0.85965
v 0.49808 0.08525 0.80517
v 0.54616 0.01491 0.78961
v 0.46502 0.00635 0.81866
v 0.48336 0.08492 0.76366
v 0.53061 0.01458 0.74574
v 0.44928 0.00602 0.77424
v 0.46742 0.08674 0.71814
v 0.51309 0.01664 0.69572
v 0.43158 0.00811 0.72369
v 0.45202 0.09267 0.67474
v 0.49469 0.02388 0.64388
v 0.41307 0.01541 0.67155
v 0.4376 0.10516 0.63582
v 0.47718 0.03884 0.59657
v 0.3955 0.03043 0.62408
v 0.42229 0.12223 0.59545
v 0.4608 0.05703 0.55337
v 0.37909 0.04864 0.58081
v 0.51757 0.037 0.84504
v 0.42073 0.07597 0.57654
vn 0.09929 0.8468 0.52256
vn 0.90449 -0.32321 0.27826
vn -0.44438 -0.46567 0.7653
vn -0.10156 0.99473 0.01375
vn 0.85866 -0.41827 -0.29624
vn -0.75801 -0.58775 0.28279
vn -0.09046 0.99475 0.04795
vn 0.85252 -0.42263 -0.30756
vn -0.76398 -0.5909 0.25916
vn -0.06701 0.99152 0.11135
vn 0.83834 -0.43031 -0.33469
vn -0.77142 -0.59789 0.21781
vn -0.02452 0.97294 0.22975
vn 0.8109 -0.43449 -0.392
vn -0.78623 -0.59974 0.14886
vn 0.01693 0.93961 0.34183
vn 0.79814 -0.40366 -0.44725
vn -0.81605 -0.56989 0.09639
vn -0.15686 0.9733 -0.16755
vn 0.48374 -0.11175 -0.86805
vn -0.87599 -0.25169 -0.41146
vn 0.33616 0.0348 0.94116
vn -0.32985 0.36667 -0.86991
f 71//71 72//72 74//74
f 72//72 75//75 74//74
f 72//72 73//73 75//75
f 73//73 76//76 75//75
f 73//73 71//71 76//76
f 71//71 74//74 76//76
f 74//74 75//75 77//77
f 75//75 78//78 77//77
f 75//75 76//76 78//78
f 76//76 79//79 78//78
f 76//76 74//74 79//79
f 74//74 77//77 79//79
f 77//77 78//78 80//80
f 78//78 81//81 80//80
f 78//78 79//79 81//81
f 79//79 82//82 81//81
f 79//79 77//77 82//82
f 77//77 80//80 82//82
f 80//80 81//81 83//83
f 81//81 84//84 83//83
f 81//81 82//82 84//84
f 82//82 85//85 84//84
f 82//82 80//80 85//85
f 80//80 83//83 85//85
f 83//83 84//84 86//86
f 84//84 87//87 86//86
f 84//84 85//85 87//87
f 85//85 88//88 87//87
f 85//85 83//83 88//88
f 83//83 86//86 88//88
f 86//86 87//87 89//89
f 87//87 90//90 89//89
f 87//87 88//88 90//90
f 88//88 91//91 90//90
f 88//88 86//86 91//91
f 86//86 89//89 91//91
f 72//72 71//71 92//92
f 73//73 72//72 92//92
f 71//71 73//73 92//92
f 89//89 90//90 93//93
f 90//90 91//91 93//93
f 91//91 89//89 93//93
g Wick5
usemtl Meche
v 0.46915 0.09761 0.51546
v 0.40994 0.07199 0.49018
v 0.42521 0.139 0.48146
v 0.49017 0.08771 0.47624
v 0.43077 0.06219 0.45133
v 0.44622 0.12911 0.44226
v 0.51114 0.07717 0.43626
v 0.45119 0.05193 0.41242
v 0.46718 0.11857 0.4023
v 0.53173 0.06545 0.39531
v 0.47094 0.04071 0.37312
v 0.4882 0.1066 0.36047
v 0.55269 0.05022 0.3525
v 0.49094 0.02618 0.33227
v 0.51033 0.0905 0.31531
v 0.5751 0.02891 0.30632
v 0.51268 0.00549 0.28747
v 0.5337 0.0683 0.26716
v 0.59831 0.00449 0.25829
v 0.5357 -0.01874 0.23983
v 0.5572 0.04359 0.21853
v 0.43477 0.10286 0.4957
v 0.56374 0.00978 0.23888
vn 0.45935 0.01097 0.88819
vn -0.77215 -0.52194 0.36245
vn -0.45466 0.87206 0.18107
vn 0.86189 -0.12913 0.49038
vn -0.62365 -0.77048 -0.13201
vn -0.2346 0.90392 -0.35763
vn 0.86734 -0.12867 0.4808
vn -0.63267 -0.7659 -0.11453
vn -0.22745 0.90275 -0.36511
vn 0.87329 -0.12091 0.47196
vn -0.65506 -0.75084 -0.08445
vn -0.21159 0.89513 -0.3924
vn 0.8739 -0.11389 0.47257
vn -0.68393 -0.72864 -0.03629
vn -0.18418 0.87542 -0.4469
vn 0.86806 -0.12413 0.48069
vn -0.69866 -0.7154 0.00866
vn -0.16652 0.85329 -0.49412
vn 0.93871 -0.34098 -0.0505
vn -0.3637 -0.82406 -0.43433
vn 0.08341 0.4724 -0.87743
vn -0.46119 0.21699 0.86036
vn 0.39567 -0.41624 -0.81865
f 94//94 95//95 97//97
f 95//95 98//98 97//97
f 95//95 96//96 98//98
f 96//96 99//99 98//98
f 96//96 94//94 99//99
f 94//94 97//97 99//99
f 97//97 98//98 100//100
f 98//98 101//101 100//100
f 98//98 99//99 101//101
f 99//99 102//102 101//101
f 99//99 97//97 102//102
f 97//97 100//100 102//102
f 100//100 101//101 103//103
f 101//101 104//104 103//103
f 101//101 102//102 104//104
f 102//102 105//105 104//104
f 102//102 100//100 105//105
f 100//100 103//103 105//105
f 103//103 104//104 106//106
f 104//104 107//107 106//106
f 104//104 105//105 107//107
f 105//105 108//108 107//107
f 105//105 103//103 108//108
f 103//103 106//106 108//108
f 106//106 107//107 109//109
f 107//107 110//110 109//109
f 107//107 108//108 110//110
f 108//108 111//111 110//110
f 108//108 106//106 111//111
f 106//106 109//109 111//111
f 109//109 110//110 112//112
f 110//110 113//113 112//112
f 110//110 111//111 113//113
f 111//111 114//114 113//113
f 111//111 109//109 114//114
f 109//109 112//112 114//114
f 95//95 94//94 115//115
f 96//96 95//95 115//115
f 94//94 96//96 115//115
f 112//112 113//113 116//116
f 113//113 114//114 116//116
f 114//114 112//112 116//116
g Wick6
usemtl Meche
v 0.76436 -0.02099 0.23923
v 0.81857 0.03549 0.31079
v 0.77499 0.12468 0.27341
v 0.72077 0.06819 0.20185
v 0.66686 -0.03353 0.32299
v 0.72054 0.02289 0.39499
v 0.67766 0.11216 0.35702
v 0.62398 0.05574 0.28501
v 0.58227 -0.04327 0.39242
v 0.63363 0.01289 0.46631
v 0.59384 0.10249 0.42585
v 0.54249 0.04633 0.35196
v 0.52367 -0.04738 0.43298
v 0.57023 0.00845 0.51027
v 0.53685 0.09849 0.46534
v 0.49029 0.04267 0.38805
v 0.47859 -0.04862 0.45873
v 0.52222 0.00709 0.53781
v 0.49274 0.09728 0.49053
v 0.44911 0.04156 0.41145
v 0.76967 0.05184 0.25632
v 0.48566 0.02433 0.47463
vn 0.37799 -0.73684 -0.56052
vn 0.96818 -0.12194 0.21853
vn 0.49373 0.84897 -0.18838
vn -0.09647 0.23406 -0.96742
vn -0.06877 -0.97241 -0.2229
vn 0.64287 -0.21985 0.73375
vn 0.07551 0.97008 0.23076
vn -0.64318 0.21837 -0.73392
vn -0.06662 -0.97608 -0.20696
vn 0.60016 -0.2263 0.7672
vn 0.08973 0.96735 0.23703
vn -0.60007 0.22104 -0.76881
vn -0.07748 -0.97715 -0.19792
vn 0.52759 -0.23157 0.81733
vn 0.09945 0.96768 0.23174
vn -0.52588 0.22603 -0.81998
vn -0.5778 -0.80823 0.11367
vn -0.10246 -0.20214 0.97398
vn -0.42447 0.78062 0.45875
vn -0.89873 0.17462 -0.40223
vn 0.75493 0.0971 -0.64857
vn -0.8681 -0.02391 0.49581
f 117//117 118//118 121//121
f 118//118 122//122 121//121
f 118//118 119//119 122//122
f 119//119 123//123 122//122
f 119//119 120//120 123//123
f 120//120 124//124 123//123
f 120//120 117//117 124//124
f 117//117 121//121 124//124
f 121//121 122//122 125//125
f 122//122 126//126 125//125
f 122//122 123//123 126//126
f 123//123 127//127 126//126
f 123//123 124//124 127//127
f 124//124 128//128 127//127
f 124//124 121//121 128//128
f 121//121 125//125 128//128
f 125//125 126//126 129//129
f 126//126 130//130 129//129
f 126//126 127//127 130//130
f 127//127 131//131 130//130
f 127//127 128//128 131//131
f 128//128 132//132 131//131
f 128//128 125//125 132//132
f 125//125 129//129 132//132
f 129//129 130//130 133//133
f 130//130 134//134 133//133
f 130//130 131//131 134//134
f 131//131 135//135 134//134
f 131//131 132//132 135//135
f 132//132 136//136 135//135
f 132//132 129//129 136//136
f 129//129 133//133 136//136
f 118//118 117//117 137//137
f 119//119 118//118 137//137
f 120//120 119//119 137//137
f 117//117 120//120 137//137
f 133//133 134//134 138//138
f 134//134 135//135 138//138
f 135//135 136//136 138//138
f 136//136 133//133 138//138
