#Produced by Art of Illusion 2.3, Wed Jan 03 18:29:41 CET 2007
mtllib bougie.mtl
g WSVCylinder_3
usemtl Default_Texture
v 0.50885 -1.0047 0.50884
v 0.66099 -1.00205 0.5088
v 0.64941 -1.00328 0.44983
v 0.61643 -1.00473 0.39986
v 0.56707 -1.00617 0.36647
v 0.50885 -1.00739 0.35476
v 0.45062 -1.0082 0.3665
v 0.40127 -1.00848 0.39992
v 0.36829 -1.00819 0.44992
v 0.3567 -1.00736 0.50889
v 0.36829 -1.00613 0.56785
v 0.40127 -1.00468 0.61783
v 0.45062 -1.00323 0.65122
v 0.50885 -1.00201 0.66293
v 0.56707 -1.0012 0.65119
v 0.61643 -1.00092 0.61777
v 0.64941 -1.00122 0.56777
v 0.6433 0.01136 0.49111
v 0.63171 0.01013 0.43215
v 0.59873 0.00868 0.38217
v 0.54938 0.00723 0.34878
v 0.49115 0.00601 0.33707
v 0.43293 0.0052 0.34881
v 0.38357 0.00492 0.38223
v 0.35059 0.00522 0.43223
v 0.33901 0.00605 0.4912
v 0.35059 0.00728 0.55017
v 0.38357 0.00873 0.60014
v 0.43293 0.01017 0.63353
v 0.49115 0.01139 0.64524
v 0.54938 0.0122 0.6335
v 0.59873 0.01248 0.60008
v 0.63171 0.01219 0.55008
v 0.49115 0.0087 0.49116
vn 0.01745 -0.9997 0.01745
vn 0.75729 -0.65298 0.0114
vn 0.70182 -0.65874 -0.27113
vn 0.54227 -0.66541 -0.513
vn 0.30012 -0.67216 -0.67685
vn 0.01161 -0.67807 -0.73491
vn -0.27689 -0.68223 -0.67668
vn -0.51903 -0.68393 -0.51268
vn -0.67857 -0.68283 -0.27071
vn -0.73404 -0.679 0.01185
vn -0.67857 -0.67297 0.29438
vn -0.51903 -0.66563 0.53623
vn -0.27689 -0.6582 0.70008
vn 0.01161 -0.65201 0.75812
vn 0.30012 -0.64813 0.6999
vn 0.54227 -0.6471 0.53591
vn 0.70182 -0.64888 0.29396
vn 0.73404 0.679 -0.01185
vn 0.67857 0.67297 -0.29438
vn 0.51903 0.66563 -0.53623
vn 0.27689 0.6582 -0.70008
vn -0.01161 0.65201 -0.75812
vn -0.30012 0.64813 -0.6999
vn -0.54227 0.6471 -0.53591
vn -0.70182 0.64888 -0.29396
vn -0.75729 0.65298 -0.0114
vn -0.70182 0.65874 0.27113
vn -0.54227 0.66541 0.513
vn -0.30012 0.67216 0.67685
vn -0.01161 0.67807 0.73491
vn 0.27689 0.68223 0.67668
vn 0.51903 0.68393 0.51268
vn 0.67857 0.68283 0.27071
vn -0.01745 0.9997 -0.01745
f 3//3 2//2 1//1
f 4//4 3//3 1//1
f 5//5 4//4 1//1
f 6//6 5//5 1//1
f 7//7 6//6 1//1
f 8//8 7//7 1//1
f 9//9 8//8 1//1
f 10//10 9//9 1//1
f 11//11 10//10 1//1
f 12//12 11//11 1//1
f 13//13 12//12 1//1
f 14//14 13//13 1//1
f 15//15 14//14 1//1
f 16//16 15//15 1//1
f 17//17 16//16 1//1
f 2//2 17//17 1//1
f 18//18 2//2 3//3
f 19//19 3//3 4//4
f 20//20 4//4 5//5
f 21//21 5//5 6//6
f 22//22 6//6 7//7
f 23//23 7//7 8//8
f 24//24 8//8 9//9
f 25//25 9//9 10//10
f 26//26 10//10 11//11
f 27//27 11//11 12//12
f 28//28 12//12 13//13
f 29//29 13//13 14//14
f 30//30 14//14 15//15
f 31//31 15//15 16//16
f 32//32 16//16 17//17
f 33//33 17//17 2//2
f 18//18 3//3 19//19
f 19//19 4//4 20//20
f 20//20 5//5 21//21
f 21//21 6//6 22//22
f 22//22 7//7 23//23
f 23//23 8//8 24//24
f 24//24 9//9 25//25
f 25//25 10//10 26//26
f 26//26 11//11 27//27
f 27//27 12//12 28//28
f 28//28 13//13 29//29
f 29//29 14//14 30//30
f 30//30 15//15 31//31
f 31//31 16//16 32//32
f 32//32 17//17 33//33
f 33//33 2//2 18//18
f 34//34 18//18 19//19
f 34//34 19//19 20//20
f 34//34 20//20 21//21
f 34//34 21//21 22//22
f 34//34 22//22 23//23
f 34//34 23//23 24//24
f 34//34 24//24 25//25
f 34//34 25//25 26//26
f 34//34 26//26 27//27
f 34//34 27//27 28//28
f 34//34 28//28 29//29
f 34//34 29//29 30//30
f 34//34 30//30 31//31
f 34//34 31//31 32//32
f 34//34 32//32 33//33
f 34//34 33//33 18//18
