#Produced by Art of Illusion 2.5.1, Tue Dec 11 11:11:29 CET 2007
mtllib meche4.mtl
o Wick3
usemtl Meche
v 0.40777 0.04203 0.43156
v 0.39014 0.02054 0.39836
v 0.38573 0.06353 0.40111
v 0.42355 0.04429 0.42172
v 0.40584 0.02278 0.38857
v 0.40242 0.06589 0.3907
v 0.43954 0.04556 0.41232
v 0.42161 0.02401 0.37932
v 0.42107 0.0673 0.37974
v 0.45554 0.04501 0.40384
v 0.43947 0.02331 0.36999
v 0.44205 0.06651 0.36876
v 0.47231 0.04333 0.39795
v 0.46189 0.021 0.36234
v 0.46635 0.06402 0.36038
v 0.4933 0.04083 0.39551
v 0.48851 0.01767 0.35923
v 0.49508 0.06041 0.35693
v 0.51627 0.03669 0.39661
v 0.51523 0.01268 0.36059
v 0.5257 0.05464 0.35835
v 0.53864 0.02994 0.40164
v 0.53991 0.00516 0.36615
v 0.55404 0.04606 0.36452
v 0.56207 0.02132 0.40912
v 0.56408 -0.00373 0.37386
v 0.57938 0.03676 0.37256
vn 0.52924 -0.00006 0.84847
vn -0.17595 -0.85978 -0.4794
vn -0.35226 0.85988 -0.36948
vn 0.51717 0.01356 0.85578
vn -0.19657 -0.85458 -0.48068
vn -0.32622 0.86365 -0.38432
vn 0.48689 0.02491 0.87311
vn -0.24152 -0.85121 -0.46595
vn -0.25304 0.8681 -0.42705
vn 0.40132 0.02048 0.91571
vn -0.26172 -0.84284 -0.47024
vn -0.15642 0.84961 -0.50368
vn 0.22886 0.02944 0.97301
vn -0.20832 -0.84481 -0.49286
vn -0.03406 0.82661 -0.56174
vn 0.04521 0.06739 0.9967
vn -0.14939 -0.85612 -0.49472
vn 0.107 0.81642 -0.56746
vn -0.10565 0.11593 0.98762
vn -0.14176 -0.85568 -0.49771
vn 0.26467 0.78773 -0.55626
vn -0.21843 0.13209 0.96687
vn -0.16301 -0.86489 -0.47476
vn 0.39211 0.75477 -0.5259
vn -0.25834 0.12839 0.95748
vn -0.17767 -0.87366 -0.45295
vn 0.43398 0.74576 -0.50548
f 1//1 2//2 4//4
f 2//2 5//5 4//4
f 2//2 3//3 5//5
f 3//3 6//6 5//5
f 3//3 1//1 6//6
f 1//1 4//4 6//6
f 4//4 5//5 7//7
f 5//5 8//8 7//7
f 5//5 6//6 8//8
f 6//6 9//9 8//8
f 6//6 4//4 9//9
f 4//4 7//7 9//9
f 7//7 8//8 10//10
f 8//8 11//11 10//10
f 8//8 9//9 11//11
f 9//9 12//12 11//11
f 9//9 7//7 12//12
f 7//7 10//10 12//12
f 10//10 11//11 13//13
f 11//11 14//14 13//13
f 11//11 12//12 14//14
f 12//12 15//15 14//14
f 12//12 10//10 15//15
f 10//10 13//13 15//15
f 13//13 14//14 16//16
f 14//14 17//17 16//16
f 14//14 15//15 17//17
f 15//15 18//18 17//17
f 15//15 13//13 18//18
f 13//13 16//16 18//18
f 16//16 17//17 19//19
f 17//17 20//20 19//19
f 17//17 18//18 20//20
f 18//18 21//21 20//20
f 18//18 16//16 21//21
f 16//16 19//19 21//21
f 19//19 20//20 22//22
f 20//20 23//23 22//22
f 20//20 21//21 23//23
f 21//21 24//24 23//23
f 21//21 19//19 24//24
f 19//19 22//22 24//24
f 22//22 23//23 25//25
f 23//23 26//26 25//25
f 23//23 24//24 26//26
f 24//24 27//27 26//26
f 24//24 22//22 27//27
f 22//22 25//25 27//27
o Wick4
usemtl Meche
v 0.50336 0.01712 0.36456
v 0.5241 0.05322 0.35265
v 0.49927 0.05322 0.38813
v 0.51725 0.01237 0.37428
v 0.53711 0.04875 0.36176
v 0.51227 0.04875 0.39723
v 0.53281 0.00822 0.38518
v 0.55016 0.04524 0.3709
v 0.52533 0.04524 0.40637
v 0.54985 0.00592 0.39712
v 0.56425 0.04334 0.38076
v 0.53941 0.04334 0.41623
v 0.56724 0.00549 0.40929
v 0.57895 0.04299 0.39106
v 0.55412 0.04299 0.42653
v 0.58449 0.00689 0.4214
v 0.59389 0.04418 0.40151
v 0.56836 0.04414 0.43648
v 0.60125 0.01019 0.43422
v 0.60904 0.04713 0.41302
v 0.58155 0.04675 0.44648
v 0.61645 0.01522 0.44789
v 0.62548 0.05255 0.42788
v 0.59277 0.05052 0.45618
v 0.62636 0.01996 0.46358
v 0.63936 0.05928 0.45095
v 0.59897 0.05345 0.46541
v 0.62848 0.02298 0.48407
v 0.64263 0.06359 0.47904
v 0.60012 0.05549 0.48045
v 0.62676 0.02525 0.50769
v 0.64084 0.06609 0.50478
v 0.59844 0.05759 0.50252
vn -0.22142 -0.96276 -0.15513
vn 0.60788 0.48131 -0.63153
vn -0.38559 0.4814 0.78713
vn -0.19814 -0.97029 -0.13888
vn 0.59805 0.47312 -0.64691
vn -0.40337 0.47326 0.78315
vn -0.1326 -0.9868 -0.09292
vn 0.56759 0.47089 -0.67535
vn -0.44031 0.47092 0.76444
vn -0.05329 -0.99788 -0.03729
vn 0.5284 0.4799 -0.70035
vn -0.47743 0.47988 0.73606
vn 0.0192 -0.99973 0.01322
vn 0.49357 0.48174 -0.7241
vn -0.51136 0.48163 0.71172
vn 0.09621 -0.99379 0.05586
vn 0.47569 0.47469 -0.74053
vn -0.55809 0.4816 0.67572
vn 0.17161 -0.97962 0.10442
vn 0.48658 0.47159 -0.73542
vn -0.62599 0.47206 0.62072
vn 0.24963 -0.96196 0.11099
vn 0.58228 0.49535 -0.64465
vn -0.73473 0.47542 0.48389
vn 0.30864 -0.946 0.09906
vn 0.736 0.56644 -0.37073
vn -0.86895 0.45559 0.19331
vn 0.23958 -0.96451 0.11098
vn 0.76901 0.63215 -0.09493
vn -0.93557 0.35121 -0.03684
vn 0.19038 -0.97589 0.10676
vn 0.75373 0.65709 -0.0111
vn -0.94299 0.31721 -0.10071
f 28//28 29//29 31//31
f 29//29 32//32 31//31
f 29//29 30//30 32//32
f 30//30 33//33 32//32
f 30//30 28//28 33//33
f 28//28 31//31 33//33
f 31//31 32//32 34//34
f 32//32 35//35 34//34
f 32//32 33//33 35//35
f 33//33 36//36 35//35
f 33//33 31//31 36//36
f 31//31 34//34 36//36
f 34//34 35//35 37//37
f 35//35 38//38 37//37
f 35//35 36//36 38//38
f 36//36 39//39 38//38
f 36//36 34//34 39//39
f 34//34 37//37 39//39
f 37//37 38//38 40//40
f 38//38 41//41 40//40
f 38//38 39//39 41//41
f 39//39 42//42 41//41
f 39//39 37//37 42//42
f 37//37 40//40 42//42
f 40//40 41//41 43//43
f 41//41 44//44 43//43
f 41//41 42//42 44//44
f 42//42 45//45 44//44
f 42//42 40//40 45//45
f 40//40 43//43 45//45
f 43//43 44//44 46//46
f 44//44 47//47 46//46
f 44//44 45//45 47//47
f 45//45 48//48 47//47
f 45//45 43//43 48//48
f 43//43 46//46 48//48
f 46//46 47//47 49//49
f 47//47 50//50 49//49
f 47//47 48//48 50//50
f 48//48 51//51 50//50
f 48//48 46//46 51//51
f 46//46 49//49 51//51
f 49//49 50//50 52//52
f 50//50 53//53 52//52
f 50//50 51//51 53//53
f 51//51 54//54 53//53
f 51//51 49//49 54//54
f 49//49 52//52 54//54
f 52//52 53//53 55//55
f 53//53 56//56 55//55
f 53//53 54//54 56//56
f 54//54 57//57 56//56
f 54//54 52//52 57//57
f 52//52 55//55 57//57
f 55//55 56//56 58//58
f 56//56 59//59 58//58
f 56//56 57//57 59//59
f 57//57 60//60 59//59
f 57//57 55//55 60//60
f 55//55 58//58 60//60
o Wick5
usemtl Meche
v 0.40106 0.06205 0.57611
v 0.42758 0.04059 0.54944
v 0.42324 0.08351 0.54574
v 0.42863 0.06685 0.59962
v 0.4536 0.04514 0.57169
v 0.44973 0.08814 0.56838
v 0.45749 0.07025 0.61946
v 0.47554 0.04793 0.58704
v 0.47372 0.09116 0.58519
v 0.48601 0.06997 0.62826
v 0.49128 0.0479 0.59138
v 0.4936 0.09114 0.59126
v 0.51049 0.06751 0.62969
v 0.51006 0.04598 0.59213
v 0.5149 0.08901 0.59236
v 0.53877 0.064 0.63106
v 0.53332 0.04315 0.59351
v 0.53933 0.08603 0.59379
v 0.57252 0.05848 0.62366
v 0.55173 0.04035 0.59028
v 0.55985 0.08289 0.59021
v 0.59827 0.05236 0.60025
v 0.56535 0.03712 0.57661
v 0.57515 0.07928 0.57545
v 0.6151 0.04733 0.5745
v 0.57961 0.03283 0.55437
v 0.58975 0.0749 0.55277
vn -0.64917 0.00003 0.76064
vn 0.41181 -0.85836 -0.30599
vn 0.23822 0.8584 -0.45431
vn -0.61114 0.01406 0.7914
vn 0.37427 -0.87226 -0.31478
vn 0.2138 0.87042 -0.44347
vn -0.43851 0.04423 0.89764
vn 0.21561 -0.90809 -0.359
vn 0.15073 0.89865 -0.41197
vn -0.17313 0.03584 0.98425
vn 0.02569 -0.89242 -0.45047
vn 0.12173 0.8937 -0.43184
vn -0.05272 0.00692 0.99859
vn -0.06848 -0.85804 -0.509
vn 0.12237 0.86123 -0.49326
vn 0.0764 -0.0098 0.99703
vn -0.14349 -0.87778 -0.45706
vn 0.09826 0.89237 -0.44048
vn 0.44737 -0.07011 0.8916
vn -0.34118 -0.88338 -0.3213
vn 0.02075 0.94663 -0.32166
vn 0.74018 -0.14465 0.65667
vn -0.54316 -0.79504 -0.26997
vn -0.13337 0.94191 -0.30824
vn 0.80959 -0.17289 0.56095
vn -0.60999 -0.75307 -0.24657
vn -0.20411 0.92882 -0.30924
f 61//61 62//62 64//64
f 62//62 65//65 64//64
f 62//62 63//63 65//65
f 63//63 66//66 65//65
f 63//63 61//61 66//66
f 61//61 64//64 66//66
f 64//64 65//65 67//67
f 65//65 68//68 67//67
f 65//65 66//66 68//68
f 66//66 69//69 68//68
f 66//66 64//64 69//69
f 64//64 67//67 69//69
f 67//67 68//68 70//70
f 68//68 71//71 70//70
f 68//68 69//69 71//71
f 69//69 72//72 71//71
f 69//69 67//67 72//72
f 67//67 70//70 72//72
f 70//70 71//71 73//73
f 71//71 74//74 73//73
f 71//71 72//72 74//74
f 72//72 75//75 74//74
f 72//72 70//70 75//75
f 70//70 73//73 75//75
f 73//73 74//74 76//76
f 74//74 77//77 76//76
f 74//74 75//75 77//77
f 75//75 78//78 77//77
f 75//75 73//73 78//78
f 73//73 76//76 78//78
f 76//76 77//77 79//79
f 77//77 80//80 79//79
f 77//77 78//78 80//80
f 78//78 81//81 80//80
f 78//78 76//76 81//81
f 76//76 79//79 81//81
f 79//79 80//80 82//82
f 80//80 83//83 82//82
f 80//80 81//81 83//83
f 81//81 84//84 83//83
f 81//81 79//79 84//84
f 79//79 82//82 84//84
f 82//82 83//83 85//85
f 83//83 86//86 85//85
f 83//83 84//84 86//86
f 84//84 87//87 86//86
f 84//84 82//82 87//87
f 82//82 85//85 87//87
o Wick2
usemtl Meche
v 0.47904 0.02962 0.59702
v 0.45142 0.00939 0.62353
v 0.46408 0.04986 0.63226
v 0.46199 0.03751 0.58541
v 0.43209 0.0183 0.61015
v 0.44395 0.05914 0.6183
v 0.45133 0.04257 0.57478
v 0.41544 0.0259 0.59233
v 0.425 0.06772 0.59821
v 0.44563 0.04542 0.55872
v 0.40643 0.02987 0.56857
v 0.41389 0.07248 0.57034
v 0.44043 0.0461 0.53358
v 0.40105 0.03053 0.54261
v 0.40736 0.07329 0.54002
v 0.43377 0.04379 0.50398
v 0.39466 0.0283 0.51423
v 0.40022 0.07083 0.50829
v 0.42839 0.04004 0.47846
v 0.38923 0.02445 0.48838
v 0.39422 0.0666 0.47977
v 0.42636 0.03647 0.46329
v 0.38698 0.02042 0.47144
v 0.39148 0.06191 0.45989
v 0.42573 0.03254 0.45054
v 0.38624 0.01606 0.45721
v 0.39069 0.05739 0.44509
v 0.42497 0.02853 0.43606
v 0.38545 0.01103 0.43858
v 0.38997 0.05301 0.42894
v 0.42637 0.02562 0.42243
v 0.38817 0.0065 0.41533
v 0.39228 0.04929 0.41008
v 0.43298 0.02394 0.40591
v 0.39735 0.00411 0.39132
v 0.40045 0.04726 0.38939
v 0.44337 0.02281 0.38563
v 0.40871 0.00286 0.36903
v 0.41139 0.04607 0.36799
vn 0.56352 0.00043 -0.82611
vn -0.53879 -0.80875 0.23586
vn -0.03263 0.8099 0.58565
vn 0.63265 -0.01808 -0.77422
vn -0.582 -0.77162 0.25667
vn -0.11378 0.81766 0.56435
vn 0.83407 -0.0763 -0.54636
vn -0.66483 -0.71639 0.21163
vn -0.28081 0.86379 0.41834
vn 0.95294 -0.12023 -0.27831
vn -0.66224 -0.7385 0.1267
vn -0.34405 0.91845 0.19514
vn 0.97032 -0.12684 -0.2059
vn -0.62115 -0.76799 0.15611
vn -0.34457 0.93727 0.05293
vn 0.97103 -0.13627 -0.19632
vn -0.60687 -0.76415 0.21859
vn -0.3707 0.92844 -0.02422
vn 0.98153 -0.12409 -0.14559
vn -0.61263 -0.74998 0.24941
vn -0.39913 0.9108 -0.10553
vn 0.99228 -0.10758 -0.06164
vn -0.60788 -0.74988 0.26109
vn -0.4168 0.88678 -0.19976
vn 0.99269 -0.11982 -0.01461
vn -0.58296 -0.77288 0.25063
vn -0.41331 0.88011 -0.23363
vn 0.99135 -0.11805 0.05737
vn -0.60559 -0.77966 0.15933
vn -0.45045 0.86522 -0.22021
vn 0.96239 -0.10191 0.25184
vn -0.5956 -0.8028 -0.02766
vn -0.46433 0.85108 -0.24506
vn 0.9074 -0.05966 0.41602
vn -0.52998 -0.83034 -0.17223
vn -0.41609 0.87278 -0.2552
vn 0.88812 -0.04385 0.45752
vn -0.49827 -0.84188 -0.20729
vn -0.39053 0.88631 -0.24887
f 88//88 89//89 91//91
f 89//89 92//92 91//91
f 89//89 90//90 92//92
f 90//90 93//93 92//92
f 90//90 88//88 93//93
f 88//88 91//91 93//93
f 91//91 92//92 94//94
f 92//92 95//95 94//94
f 92//92 93//93 95//95
f 93//93 96//96 95//95
f 93//93 91//91 96//96
f 91//91 94//94 96//96
f 94//94 95//95 97//97
f 95//95 98//98 97//97
f 95//95 96//96 98//98
f 96//96 99//99 98//98
f 96//96 94//94 99//99
f 94//94 97//97 99//99
f 97//97 98//98 100//100
f 98//98 101//101 100//100
f 98//98 99//99 101//101
f 99//99 102//102 101//101
f 99//99 97//97 102//102
f 97//97 100//100 102//102
f 100//100 101//101 103//103
f 101//101 104//104 103//103
f 101//101 102//102 104//104
f 102//102 105//105 104//104
f 102//102 100//100 105//105
f 100//100 103//103 105//105
f 103//103 104//104 106//106
f 104//104 107//107 106//106
f 104//104 105//105 107//107
f 105//105 108//108 107//107
f 105//105 103//103 108//108
f 103//103 106//106 108//108
f 106//106 107//107 109//109
f 107//107 110//110 109//109
f 107//107 108//108 110//110
f 108//108 111//111 110//110
f 108//108 106//106 111//111
f 106//106 109//109 111//111
f 109//109 110//110 112//112
f 110//110 113//113 112//112
f 110//110 111//111 113//113
f 111//111 114//114 113//113
f 111//111 109//109 114//114
f 109//109 112//112 114//114
f 112//112 113//113 115//115
f 113//113 116//116 115//115
f 113//113 114//114 116//116
f 114//114 117//117 116//116
f 114//114 112//112 117//117
f 112//112 115//115 117//117
f 115//115 116//116 118//118
f 116//116 119//119 118//118
f 116//116 117//117 119//119
f 117//117 120//120 119//119
f 117//117 115//115 120//120
f 115//115 118//118 120//120
f 118//118 119//119 121//121
f 119//119 122//122 121//121
f 119//119 120//120 122//122
f 120//120 123//123 122//122
f 120//120 118//118 123//123
f 118//118 121//121 123//123
f 121//121 122//122 124//124
f 122//122 125//125 124//124
f 122//122 123//123 125//125
f 123//123 126//126 125//125
f 123//123 121//121 126//126
f 121//121 124//124 126//126
o Wick1
usemtl Meche
v 0.55786 0.068 0.64524
v 0.54791 0.08998 0.60929
v 0.58844 0.09059 0.62452
v 0.56598 0.03852 0.62488
v 0.55529 0.06283 0.59069
v 0.59565 0.06402 0.60632
v 0.57806 0.0129 0.59846
v 0.56329 0.04431 0.57257
v 0.60276 0.04748 0.5901
v 0.59463 0.00486 0.56712
v 0.57344 0.0401 0.55354
v 0.61216 0.04408 0.57251
v 0.60644 0.00608 0.54169
v 0.58282 0.04148 0.53368
v 0.62339 0.04537 0.54833
v 0.61146 0.00545 0.52145
v 0.58745 0.04081 0.51447
v 0.62984 0.04465 0.52244
v 0.61428 0.00341 0.50131
v 0.59042 0.03865 0.49329
v 0.63311 0.04236 0.4995
v 0.6179 0.00042 0.48028
v 0.5942 0.03549 0.47112
v 0.63703 0.03907 0.47642
v 0.62009 -0.00355 0.4598
v 0.5963 0.03163 0.45137
v 0.63952 0.03425 0.45152
v 0.61867 -0.00871 0.44029
v 0.59541 0.0276 0.43642
v 0.63721 0.02735 0.42512
v 0.60936 -0.0144 0.4213
v 0.59045 0.02432 0.42554
v 0.62429 0.01956 0.39896
v 0.5886 -0.01939 0.40407
v 0.5744 0.02062 0.4126
v 0.60008 0.01358 0.37845
v 0.56251 -0.02395 0.388
v 0.54967 0.01632 0.39743
v 0.57297 0.00883 0.36171
vn -0.27521 -0.59617 0.75422
vn -0.67269 0.28366 -0.68339
vn 0.94828 0.30857 -0.07446
vn -0.25972 -0.67524 0.69035
vn -0.71404 0.27321 -0.64459
vn 0.94383 0.33034 -0.00786
vn -0.147 -0.88686 0.43802
vn -0.80465 0.2538 -0.53678
vn 0.89142 0.40174 0.20972
vn 0.05208 -0.9913 0.12088
vn -0.82429 0.36394 -0.4337
vn 0.77291 0.52462 0.35691
vn 0.14144 -0.98914 0.03999
vn -0.83661 0.46377 -0.29153
vn 0.7753 0.56611 0.28005
vn 0.104 -0.99074 0.08727
vn -0.87306 0.44664 -0.19568
vn 0.80995 0.57384 0.12121
vn 0.05959 -0.98979 0.12949
vn -0.88471 0.42596 -0.18931
vn 0.81269 0.57994 0.05658
vn 0.07993 -0.9813 0.17513
vn -0.87749 0.43789 -0.1956
vn 0.82605 0.56334 0.01674
vn 0.10957 -0.96903 0.22128
vn -0.87485 0.46716 -0.12803
vn 0.84185 0.52759 -0.11375
vn 0.16103 -0.96094 0.22506
vn -0.84408 0.53259 0.06221
vn 0.8258 0.4406 -0.35203
vn 0.14527 -0.9735 0.17661
vn -0.69754 0.6216 0.35644
vn 0.68711 0.34319 -0.64039
vn 0.06089 -0.97806 0.19922
vn -0.52564 0.63959 0.56092
vn 0.50795 0.32643 -0.79714
vn 0.03199 -0.97373 0.22543
vn -0.48081 0.63665 0.60291
vn 0.4508 0.33698 -0.82657
f 127//127 128//128 130//130
f 128//128 131//131 130//130
f 128//128 129//129 131//131
f 129//129 132//132 131//131
f 129//129 127//127 132//132
f 127//127 130//130 132//132
f 130//130 131//131 133//133
f 131//131 134//134 133//133
f 131//131 132//132 134//134
f 132//132 135//135 134//134
f 132//132 130//130 135//135
f 130//130 133//133 135//135
f 133//133 134//134 136//136
f 134//134 137//137 136//136
f 134//134 135//135 137//137
f 135//135 138//138 137//137
f 135//135 133//133 138//138
f 133//133 136//136 138//138
f 136//136 137//137 139//139
f 137//137 140//140 139//139
f 137//137 138//138 140//140
f 138//138 141//141 140//140
f 138//138 136//136 141//141
f 136//136 139//139 141//141
f 139//139 140//140 142//142
f 140//140 143//143 142//142
f 140//140 141//141 143//143
f 141//141 144//144 143//143
f 141//141 139//139 144//144
f 139//139 142//142 144//144
f 142//142 143//143 145//145
f 143//143 146//146 145//145
f 143//143 144//144 146//146
f 144//144 147//147 146//146
f 144//144 142//142 147//147
f 142//142 145//145 147//147
f 145//145 146//146 148//148
f 146//146 149//149 148//148
f 146//146 147//147 149//149
f 147//147 150//150 149//149
f 147//147 145//145 150//150
f 145//145 148//148 150//150
f 148//148 149//149 151//151
f 149//149 152//152 151//151
f 149//149 150//150 152//152
f 150//150 153//153 152//152
f 150//150 148//148 153//153
f 148//148 151//151 153//153
f 151//151 152//152 154//154
f 152//152 155//155 154//154
f 152//152 153//153 155//155
f 153//153 156//156 155//155
f 153//153 151//151 156//156
f 151//151 154//154 156//156
f 154//154 155//155 157//157
f 155//155 158//158 157//157
f 155//155 156//156 158//158
f 156//156 159//159 158//158
f 156//156 154//154 159//159
f 154//154 157//157 159//159
f 157//157 158//158 160//160
f 158//158 161//161 160//160
f 158//158 159//159 161//161
f 159//159 162//162 161//161
f 159//159 157//157 162//162
f 157//157 160//160 162//162
f 160//160 161//161 163//163
f 161//161 164//164 163//163
f 161//161 162//162 164//164
f 162//162 165//165 164//164
f 162//162 160//160 165//165
f 160//160 163//163 165//165
o Lamp
usemtl bois2
v 0.5 -1.5 0.5
v 0.6 -1.5 0.5
v 0.5 -1.5 0.375
v 0.4 -1.5 0.5
v 0.5 -1.5 0.625
v 0.59231 -0.3 0.49038
v 0.596 -0.3 0.495
v 0.5 -0.3 0.375
v 0.49231 -0.3 0.38462
v 0.4 -0.3 0.5
v 0.40769 -0.3 0.50962
v 0.5 -0.3 0.625
v 0.505 -0.3 0.61875
v 0.57137 -0.3 0.46421
v 0.47307 -0.3 0.40866
v 0.4255 -0.3 0.53188
v 0.50769 -0.3 0.61538
v 0.5363 -0.3 0.57963
v 0.6 -0.3 0.5
v 0.553 -0.3 0.44124
v 0.45173 -0.3 0.43534
v 0.44751 -0.3 0.55939
v 0.55722 -0.3 0.55348
v 0.53377 -0.3 0.41721
v 0.43134 -0.3 0.46083
v 0.47054 -0.3 0.58818
v 0.5772 -0.3 0.5285
v 0.505 -0.3 0.38125
v 0.404 -0.3 0.495
v 0.63 -0.3 0.495
v 0.62048 -0.3 0.44142
v 0.59339 -0.3 0.39601
v 0.55284 -0.3 0.36566
v 0.505 -0.3 0.355
v 0.45716 -0.3 0.36566
v 0.41661 -0.3 0.39601
v 0.38952 -0.3 0.44142
v 0.38 -0.3 0.495
v 0.38952 -0.3 0.54858
v 0.41661 -0.3 0.59399
v 0.45716 -0.3 0.62434
v 0.505 -0.3 0.635
v 0.55284 -0.3 0.62434
v 0.59339 -0.3 0.59399
v 0.62048 -0.3 0.54858
v 0.63 0.05 0.495
v 0.62048 0.05 0.44142
v 0.59339 0.05 0.39601
v 0.55284 0.05 0.36566
v 0.505 0.05 0.355
v 0.45716 0.05 0.36566
v 0.41661 0.05 0.39601
v 0.38952 0.05 0.44142
v 0.38 0.05 0.495
v 0.38952 0.05 0.54858
v 0.41661 0.05 0.59399
v 0.45716 0.05 0.62434
v 0.505 0.05 0.635
v 0.55284 0.05 0.62434
v 0.59339 0.05 0.59399
v 0.62048 0.05 0.54858
v 0.505 0.05 0.495
vn 0 -1 0
vn 0 -1 0
vn 1 0 -0
vn 0 -1 0
vn -0 0 -1
vn 0 -1 0
vn -1 0 -0
vn 0 -1 0
vn 0 0 1
vn 0 -1 0
vn 0.78087 0 -0.6247
vn 0 -1 0
vn 0.78087 0 -0.6247
vn 0 -0 -1
vn 0 -1 0
vn -0.78087 -0 -0.6247
vn 0 -1 0
vn -1 0 0
vn 0 -1 0
vn -0.78087 0 0.6247
vn 0 -1 0
vn 0 -1 0
vn -0 -0 1
vn 0.78087 0 0.6247
vn 0 -1 0
vn 0.78087 0 -0.6247
vn 0 -1 0
vn -0.78087 0 -0.6247
vn 0 -1 0
vn -0.78087 -0 0.6247
vn 0 -1 0
vn 0 -1 0
vn 0.78087 0 0.6247
vn 0.78087 0 0.6247
vn 0 -1 0
vn 0 -1 0
vn 1 0 0
vn 0.78087 0 -0.6247
vn 0 -1 0
vn -0.78087 0 -0.6247
vn 0 -1 0
vn -0.78087 -0 0.6247
vn 0 -1 0
vn 0.78087 0 0.6247
vn 0 -1 0
vn 0.78087 0 -0.6247
vn 0 -1 0
vn -0.78087 0 -0.6247
vn 0 -1 0
vn -0.78087 -0 0.6247
vn 0 -1 0
vn 0.78087 0 0.6247
vn 0 -1 0
vn 0.78087 0 -0.6247
vn 0 -1 0
vn -0.78087 0 -0.6247
vn 0 -1 0
vn 0 -1 0
vn 1 0 0
vn 0 -1 0
vn 0.93701 0 -0.34931
vn 0 -1 0
vn 0.74309 0 -0.6692
vn 0 -1 0
vn 0.41762 0 -0.90862
vn 0 -1 0
vn -0 0 -1
vn 0 -1 0
vn -0.41762 0 -0.90862
vn 0 -1 0
vn -0.74309 0 -0.6692
vn 0 -1 0
vn -0.93701 0 -0.34931
vn 0 -1 0
vn -1 0 -0
vn 0 -1 0
vn -0.93701 0 0.34931
vn 0 -1 0
vn -0.74309 0 0.6692
vn 0 -1 0
vn -0.41762 0 0.90862
vn 0 -1 0
vn 0 0 1
vn 0 -1 0
vn 0.41762 0 0.90862
vn 0 -1 0
vn 0.74309 0 0.6692
vn 0 -1 0
vn 0.93701 0 0.34931
vn 0 1 0
vn 1 0 0
vn 0 1 0
vn 0.93701 0 -0.34931
vn 0 1 0
vn 0.74309 0 -0.6692
vn 0 1 0
vn 0.41762 0 -0.90862
vn 0 1 0
vn -0 0 -1
vn 0 1 0
vn -0.41762 0 -0.90862
vn 0 1 0
vn -0.74309 0 -0.6692
vn 0 1 0
vn -0.93701 0 -0.34931
vn 0 1 0
vn -1 0 0
vn 0 1 0
vn -0.93701 0 0.34931
vn 0 1 0
vn -0.74309 0 0.6692
vn 0 1 0
vn -0.41762 0 0.90862
vn 0 1 0
vn 0 0 1
vn 0 1 0
vn 0.41762 0 0.90862
vn 0 1 0
vn 0.74309 0 0.6692
vn 0 1 0
vn 0.93701 0 0.34931
vn 0 1 0
vt -0.5 -0.275
vt -0 -0.275
vt -0.75 -0.275
vt -0.5 -0.275
vt -0.25 -0.275
vt 0.01653 0.925
vt 0.00828 0.925
vt -0.75 0.925
vt -0.7394 0.925
vt -0.5 0.925
vt -0.48347 0.925
vt -0.25 0.925
vt -0.2433 0.925
vt 0.07456 0.925
vt -0.70419 0.925
vt -0.43521 0.925
vt -0.2394 0.925
vt -0.18144 0.925
vt -0 0.925
vt 0.13308 0.925
vt -0.64723 0.925
vt -0.36542 0.925
vt -0.11953 0.925
vt 0.18797 0.925
vt -0.58322 0.925
vt -0.30156 0.925
vt -0.05659 0.925
vt 0.2433 0.925
vt -0.50828 0.925
vt 0.00612 0.925
vt 0.07257 0.925
vt 0.1334 0.925
vt 0.19 0.925
vt 0.24451 0.925
vt -0.70066 0.925
vt -0.64185 0.925
vt -0.57822 0.925
vt -0.50663 0.925
vt -0.43362 0.925
vt -0.3657 0.925
vt -0.30306 0.925
vt -0.24411 0.925
vt -0.18563 0.925
vt -0.12611 0.925
vt -0.06137 0.925
vt 0.00612 1.275
vt 0.07257 1.275
vt 0.1334 1.275
vt 0.19 1.275
vt 0.24451 1.275
vt -0.70066 1.275
vt -0.64185 1.275
vt -0.57822 1.275
vt -0.50663 1.275
vt -0.43362 1.275
vt -0.3657 1.275
vt -0.30306 1.275
vt -0.24411 1.275
vt -0.18563 1.275
vt -0.12611 1.275
vt -0.06137 1.275
vt 0.12566 1.275
f 168/3/169 167/2/167 166/1/166
f 169/4/171 168/3/169 166/1/166
f 170/5/173 169/4/171 166/1/166
f 167/2/167 170/5/173 166/1/166
f 168/3/170 171/6/176 172/7/178
f 167/2/168 168/3/170 172/7/178
f 169/4/172 174/9/181 173/8/179
f 169/4/172 173/8/179 168/3/170
f 170/5/174 176/11/185 175/10/183
f 170/5/174 175/10/183 169/4/172
f 177/12/188 170/5/174 178/13/189
f 170/5/174 167/2/168 178/13/189
f 171/6/176 168/3/170 179/14/191
f 174/9/181 169/4/172 180/15/193
f 176/11/185 170/5/174 181/16/195
f 182/17/198 167/2/168 183/18/199
f 184/19/202 167/2/168 172/7/178
f 167/2/168 182/17/198 178/13/189
f 179/14/191 168/3/170 185/20/203
f 180/15/193 169/4/172 186/21/205
f 181/16/195 170/5/174 187/22/207
f 183/18/199 167/2/168 188/23/209
f 185/20/203 168/3/170 189/24/211
f 186/21/205 169/4/172 190/25/213
f 187/22/207 170/5/174 191/26/215
f 188/23/209 167/2/168 192/27/217
f 189/24/211 168/3/170 193/28/219
f 190/25/213 169/4/172 194/29/221
f 170/5/174 177/12/188 191/26/215
f 167/2/168 184/19/202 192/27/217
f 168/3/170 173/8/179 193/28/219
f 169/4/172 175/10/183 194/29/221
f 211/46/256 195/30/224 196/31/226
f 212/47/258 196/31/226 197/32/228
f 213/48/260 197/32/228 198/33/230
f 214/49/262 198/33/230 199/34/232
f 215/50/264 199/34/232 200/35/234
f 216/51/266 200/35/234 201/36/236
f 217/52/268 201/36/236 202/37/238
f 218/53/270 202/37/238 203/38/240
f 219/54/272 203/38/240 204/39/242
f 220/55/274 204/39/242 205/40/244
f 221/56/276 205/40/244 206/41/246
f 222/57/278 206/41/246 207/42/248
f 223/58/280 207/42/248 208/43/250
f 224/59/282 208/43/250 209/44/252
f 225/60/284 209/44/252 210/45/254
f 226/61/286 210/45/254 195/30/224
f 211/46/256 196/31/226 212/47/258
f 212/47/258 197/32/228 213/48/260
f 213/48/260 198/33/230 214/49/262
f 214/49/262 199/34/232 215/50/264
f 215/50/264 200/35/234 216/51/266
f 216/51/266 201/36/236 217/52/268
f 217/52/268 202/37/238 218/53/270
f 218/53/270 203/38/240 219/54/272
f 219/54/272 204/39/242 220/55/274
f 220/55/274 205/40/244 221/56/276
f 221/56/276 206/41/246 222/57/278
f 222/57/278 207/42/248 223/58/280
f 223/58/280 208/43/250 224/59/282
f 224/59/282 209/44/252 225/60/284
f 225/60/284 210/45/254 226/61/286
f 226/61/286 195/30/224 211/46/256
f 227/62/287 211/46/255 212/47/257
f 227/62/287 212/47/257 213/48/259
f 227/62/287 213/48/259 214/49/261
f 227/62/287 214/49/261 215/50/263
f 227/62/287 215/50/263 216/51/265
f 227/62/287 216/51/265 217/52/267
f 227/62/287 217/52/267 218/53/269
f 227/62/287 218/53/269 219/54/271
f 227/62/287 219/54/271 220/55/273
f 227/62/287 220/55/273 221/56/275
f 227/62/287 221/56/275 222/57/277
f 227/62/287 222/57/277 223/58/279
f 227/62/287 223/58/279 224/59/281
f 227/62/287 224/59/281 225/60/283
f 227/62/287 225/60/283 226/61/285
f 227/62/287 226/61/285 211/46/255
f 195/30/223 172/7/177 171/6/175
f 196/31/225 195/30/223 171/6/175
f 196/31/225 179/14/192 185/20/204
f 196/31/225 185/20/204 197/32/227
f 197/32/227 185/20/204 189/24/212
f 197/32/227 189/24/212 198/33/229
f 198/33/229 189/24/212 193/28/220
f 198/33/229 193/28/220 199/34/231
f 200/35/233 173/8/180 174/9/182
f 200/35/233 199/34/231 173/8/180
f 200/35/233 180/15/194 186/21/206
f 200/35/233 186/21/206 201/36/235
f 201/36/235 186/21/206 190/25/214
f 201/36/235 190/25/214 202/37/237
f 202/37/237 190/25/214 194/29/222
f 202/37/237 194/29/222 203/38/239
f 204/39/241 175/10/184 176/11/186
f 204/39/241 203/38/239 175/10/184
f 204/39/241 181/16/196 187/22/208
f 204/39/241 187/22/208 205/40/243
f 205/40/243 187/22/208 191/26/216
f 205/40/243 191/26/216 206/41/245
f 178/13/190 207/42/247 177/12/187
f 207/42/247 206/41/245 177/12/187
f 183/18/200 208/43/249 182/17/197
f 208/43/249 207/42/247 182/17/197
f 208/43/249 183/18/200 188/23/210
f 208/43/249 188/23/210 209/44/251
f 209/44/251 188/23/210 192/27/218
f 209/44/251 192/27/218 210/45/253
f 172/7/177 195/30/223 184/19/201
f 195/30/223 210/45/253 184/19/201
f 179/14/192 196/31/225 171/6/175
f 180/15/194 200/35/233 174/9/182
f 199/34/231 193/28/220 173/8/180
f 181/16/196 204/39/241 176/11/186
f 203/38/239 194/29/222 175/10/184
f 206/41/245 191/26/216 177/12/187
f 207/42/247 178/13/190 182/17/197
f 210/45/253 192/27/218 184/19/201
