#Produced by Art of Illusion 2.3, Wed Jan 03 18:16:41 CET 2007
mtllib meche3.mtl
g Tube_7
usemtl Default_Texture
v 0.27016 0.01336 0.5
v 0.26818 0.04329 0.48268
v 0.26818 0.04329 0.51732
v 0.31739 0.01649 0.5
v 0.3144 0.04634 0.48268
v 0.3144 0.04634 0.51732
v 0.36277 0.02277 0.5
v 0.35631 0.05207 0.48268
v 0.35631 0.05207 0.51732
v 0.40078 0.03485 0.5
v 0.39144 0.06336 0.48268
v 0.39144 0.06336 0.51732
v 0.43093 0.04507 0.5
v 0.42434 0.07434 0.48268
v 0.42434 0.07434 0.51732
v 0.45764 0.04798 0.5
v 0.4571 0.07797 0.48268
v 0.4571 0.07797 0.51732
v 0.47984 0.04598 0.5
v 0.48562 0.07542 0.48268
v 0.48562 0.07542 0.51732
v 0.49524 0.04048 0.5
v 0.50637 0.06834 0.48268
v 0.50637 0.06834 0.51732
v 0.51619 0.0311 0.5
v 0.52684 0.05915 0.48268
v 0.52684 0.05915 0.51732
v 0.55081 0.01969 0.5
v 0.55664 0.04912 0.48268
v 0.55664 0.04912 0.51732
v 0.59822 0.01524 0.5
v 0.59641 0.04518 0.48268
v 0.59641 0.04518 0.51732
v 0.65324 0.0253 0.5
v 0.649 0.055 0.48268
v 0.649 0.055 0.51732
v 0.6921 0.03002 0.5
v 0.69915 0.05918 0.48268
v 0.69915 0.05918 0.51732
v 0.70064 0.01901 0.5
v 0.72684 0.03361 0.48268
v 0.72684 0.03361 0.51732
v 0.70753 -0.00961 0.5
v 0.73654 -0.00196 0.48268
v 0.73654 -0.00196 0.51732
v 0.26884 0.03331 0.5
v 0.72687 -0.00451 0.5
vn -0.49848 -0.8669 -0.00004
vn -0.58091 0.37851 -0.7206
vn -0.58095 0.37853 0.72057
vn 0.10139 -0.99485 -0.00014
vn -0.04856 0.48277 -0.8744
vn -0.04879 0.48287 0.87433
vn 0.22072 -0.97534 0.00009
vn -0.10272 0.45064 -0.88678
vn -0.10194 0.45072 0.88682
vn 0.31178 -0.95015 -0.00008
vn -0.15431 0.47297 -0.86746
vn -0.1553 0.47271 0.86742
vn 0.21522 -0.97656 -0.00019
vn -0.11619 0.52871 -0.84082
vn -0.11554 0.52899 0.84072
vn 0.00925 -0.99996 0.00016
vn -0.00558 0.53905 -0.84225
vn -0.00575 0.53894 0.84233
vn -0.21475 -0.97667 0.00085
vn 0.11298 0.53498 -0.83728
vn 0.11371 0.53433 0.83759
vn -0.37166 -0.92837 0.00069
vn 0.19028 0.48265 -0.85489
vn 0.18913 0.48261 0.85517
vn -0.36199 -0.93218 -0.00042
vn 0.17541 0.44568 -0.87784
vn 0.17487 0.44633 0.87762
vn -0.20526 -0.97871 -0.00065
vn 0.09482 0.43993 -0.89301
vn 0.09504 0.44057 0.89267
vn 0.0447 -0.999 -0.00005
vn -0.02026 0.43668 -0.89939
vn -0.01869 0.43684 0.89934
vn 0.14509 -0.98942 -0.00245
vn -0.06423 0.51433 -0.85518
vn -0.06988 0.51543 0.85408
vn -0.42242 -0.90613 0.02231
vn 0.20812 0.60375 -0.76953
vn 0.21676 0.59875 0.77105
vn -0.8905 -0.45469 0.01609
vn 0.51039 0.31536 -0.80003
vn 0.50246 0.31712 0.80434
vn -0.66831 -0.74388 0.00315
vn 0.54661 -0.42793 -0.71979
vn 0.54427 -0.42694 0.72214
vn -0.99782 -0.06604 0
vn 0.25494 -0.96696 0
f 1//1 2//2 4//4
f 2//2 5//5 4//4
f 2//2 3//3 5//5
f 3//3 6//6 5//5
f 3//3 1//1 6//6
f 1//1 4//4 6//6
f 4//4 5//5 7//7
f 5//5 8//8 7//7
f 5//5 6//6 8//8
f 6//6 9//9 8//8
f 6//6 4//4 9//9
f 4//4 7//7 9//9
f 7//7 8//8 10//10
f 8//8 11//11 10//10
f 8//8 9//9 11//11
f 9//9 12//12 11//11
f 9//9 7//7 12//12
f 7//7 10//10 12//12
f 10//10 11//11 13//13
f 11//11 14//14 13//13
f 11//11 12//12 14//14
f 12//12 15//15 14//14
f 12//12 10//10 15//15
f 10//10 13//13 15//15
f 13//13 14//14 16//16
f 14//14 17//17 16//16
f 14//14 15//15 17//17
f 15//15 18//18 17//17
f 15//15 13//13 18//18
f 13//13 16//16 18//18
f 16//16 17//17 19//19
f 17//17 20//20 19//19
f 17//17 18//18 20//20
f 18//18 21//21 20//20
f 18//18 16//16 21//21
f 16//16 19//19 21//21
f 19//19 20//20 22//22
f 20//20 23//23 22//22
f 20//20 21//21 23//23
f 21//21 24//24 23//23
f 21//21 19//19 24//24
f 19//19 22//22 24//24
f 22//22 23//23 25//25
f 23//23 26//26 25//25
f 23//23 24//24 26//26
f 24//24 27//27 26//26
f 24//24 22//22 27//27
f 22//22 25//25 27//27
f 25//25 26//26 28//28
f 26//26 29//29 28//28
f 26//26 27//27 29//29
f 27//27 30//30 29//29
f 27//27 25//25 30//30
f 25//25 28//28 30//30
f 28//28 29//29 31//31
f 29//29 32//32 31//31
f 29//29 30//30 32//32
f 30//30 33//33 32//32
f 30//30 28//28 33//33
f 28//28 31//31 33//33
f 31//31 32//32 34//34
f 32//32 35//35 34//34
f 32//32 33//33 35//35
f 33//33 36//36 35//35
f 33//33 31//31 36//36
f 31//31 34//34 36//36
f 34//34 35//35 37//37
f 35//35 38//38 37//37
f 35//35 36//36 38//38
f 36//36 39//39 38//38
f 36//36 34//34 39//39
f 34//34 37//37 39//39
f 37//37 38//38 40//40
f 38//38 41//41 40//40
f 38//38 39//39 41//41
f 39//39 42//42 41//41
f 39//39 37//37 42//42
f 37//37 40//40 42//42
f 40//40 41//41 43//43
f 41//41 44//44 43//43
f 41//41 42//42 44//44
f 42//42 45//45 44//44
f 42//42 40//40 45//45
f 40//40 43//43 45//45
f 2//2 1//1 46//46
f 3//3 2//2 46//46
f 1//1 3//3 46//46
f 43//43 44//44 47//47
f 44//44 45//45 47//47
f 45//45 43//43 47//47
