#Produced by Art of Illusion 2.3, Fri Sep 29 15:50:40 CEST 2006
mtllib scene_vide_blanc.mtl
g Cylinder_1
usemtl Untitled_2
v -0.18 -4.67 0.01
v -0.18 -4.67 1.24
v 0.2907 -4.67 1.14637
v 0.68974 -4.67 0.87974
v 0.95637 -4.67 0.4807
v 1.05 -4.67 0.01
v 0.95637 -4.67 -0.4607
v 0.68974 -4.67 -0.85974
v 0.2907 -4.67 -1.12637
v -0.18 -4.67 -1.22
v -0.6507 -4.67 -1.12637
v -1.04974 -4.67 -0.85974
v -1.31637 -4.67 -0.4607
v -1.41 -4.67 0.01
v -1.31637 -4.67 0.4807
v -1.04974 -4.67 0.87974
v -0.6507 -4.67 1.14637
v -0.18 -0.62 1.24
v 0.2907 -0.62 1.14637
v 0.68974 -0.62 0.87974
v 0.95637 -0.62 0.4807
v 1.05 -0.62 0.01
v 0.95637 -0.62 -0.4607
v 0.68974 -0.62 -0.85974
v 0.2907 -0.62 -1.12637
v -0.18 -0.62 -1.22
v -0.6507 -0.62 -1.12637
v -1.04974 -0.62 -0.85974
v -1.31637 -0.62 -0.4607
v -1.41 -0.62 0.01
v -1.31637 -0.62 0.4807
v -1.04974 -0.62 0.87974
v -0.6507 -0.62 1.14637
v -0.18 -0.62 0.01
vn 0 -1 0
vn -0 -0.66572 0.7462
vn 0.28556 -0.66572 0.6894
vn 0.52764 -0.66572 0.52764
vn 0.6894 -0.66572 0.28556
vn 0.7462 -0.66572 -0
vn 0.6894 -0.66572 -0.28556
vn 0.52764 -0.66572 -0.52764
vn 0.28556 -0.66572 -0.6894
vn 0 -0.66572 -0.7462
vn -0.28556 -0.66572 -0.6894
vn -0.52764 -0.66572 -0.52764
vn -0.6894 -0.66572 -0.28556
vn -0.7462 -0.66572 -0
vn -0.6894 -0.66572 0.28556
vn -0.52764 -0.66572 0.52764
vn -0.28556 -0.66572 0.6894
vn -0 0.66572 0.7462
vn 0.28556 0.66572 0.6894
vn 0.52764 0.66572 0.52764
vn 0.6894 0.66572 0.28556
vn 0.7462 0.66572 -0
vn 0.6894 0.66572 -0.28556
vn 0.52764 0.66572 -0.52764
vn 0.28556 0.66572 -0.6894
vn 0 0.66572 -0.7462
vn -0.28556 0.66572 -0.6894
vn -0.52764 0.66572 -0.52764
vn -0.6894 0.66572 -0.28556
vn -0.7462 0.66572 -0
vn -0.6894 0.66572 0.28556
vn -0.52764 0.66572 0.52764
vn -0.28556 0.66572 0.6894
vn 0 1 0
f 3//3 2//2 1//1
f 4//4 3//3 1//1
f 5//5 4//4 1//1
f 6//6 5//5 1//1
f 7//7 6//6 1//1
f 8//8 7//7 1//1
f 9//9 8//8 1//1
f 10//10 9//9 1//1
f 11//11 10//10 1//1
f 12//12 11//11 1//1
f 13//13 12//12 1//1
f 14//14 13//13 1//1
f 15//15 14//14 1//1
f 16//16 15//15 1//1
f 17//17 16//16 1//1
f 2//2 17//17 1//1
f 18//18 2//2 3//3
f 19//19 3//3 4//4
f 20//20 4//4 5//5
f 21//21 5//5 6//6
f 22//22 6//6 7//7
f 23//23 7//7 8//8
f 24//24 8//8 9//9
f 25//25 9//9 10//10
f 26//26 10//10 11//11
f 27//27 11//11 12//12
f 28//28 12//12 13//13
f 29//29 13//13 14//14
f 30//30 14//14 15//15
f 31//31 15//15 16//16
f 32//32 16//16 17//17
f 33//33 17//17 2//2
f 18//18 3//3 19//19
f 19//19 4//4 20//20
f 20//20 5//5 21//21
f 21//21 6//6 22//22
f 22//22 7//7 23//23
f 23//23 8//8 24//24
f 24//24 9//9 25//25
f 25//25 10//10 26//26
f 26//26 11//11 27//27
f 27//27 12//12 28//28
f 28//28 13//13 29//29
f 29//29 14//14 30//30
f 30//30 15//15 31//31
f 31//31 16//16 32//32
f 32//32 17//17 33//33
f 33//33 2//2 18//18
f 34//34 18//18 19//19
f 34//34 19//19 20//20
f 34//34 20//20 21//21
f 34//34 21//21 22//22
f 34//34 22//22 23//23
f 34//34 23//23 24//24
f 34//34 24//24 25//25
f 34//34 25//25 26//26
f 34//34 26//26 27//27
f 34//34 27//27 28//28
f 34//34 28//28 29//29
f 34//34 29//29 30//30
f 34//34 30//30 31//31
f 34//34 31//31 32//32
f 34//34 32//32 33//33
f 34//34 33//33 18//18
g Cube_1
usemtl blanc
v -16.80116 -20.88361 -1.71262
v 17.34087 -20.88361 -1.71262
v -16.80116 13.67734 -1.71262
v 17.34087 13.67734 -1.71262
v 0.26985 -3.60313 -1.71262
vn 0 0 1
vn 0 0 1
vn 0 0 1
vn 0 0 1
vn 0 0 1
f 35//35 36//36 39//39
f 36//36 38//38 39//39
f 38//38 37//37 39//39
f 37//37 35//35 39//39
