#Produced by Art of Illusion 2.2, Thu Apr 13 12:00:10 CEST 2006
mtllib bonfire1.mtl
g Wick3
usemtl Meche
v -0.03245 0.02401 0.0171
v -0.00915 -0.00627 -0.00327
v -0.04074 -0.01793 0.02396
v -0.05536 0.02419 -0.0094
v -0.03293 -0.00606 -0.03077
v -0.06457 -0.01772 -0.0036
v -0.07774 0.02671 -0.03447
v -0.05789 -0.00319 -0.05871
v -0.08967 -0.01481 -0.0317
v -0.10114 0.034 -0.05904
v -0.0843 0.005 -0.08646
v -0.11615 -0.0066 -0.05951
v -0.1248 0.04474 -0.08236
v -0.11054 0.01689 -0.1123
v -0.14222 0.0052 -0.08519
v -0.14741 0.05758 -0.10295
v -0.13512 0.03082 -0.13469
v -0.16655 0.01898 -0.10736
v -0.17007 0.07185 -0.12268
v -0.15847 0.04551 -0.15503
v -0.18982 0.03362 -0.12762
vn -0.53813 0.69956 0.47015
vn 0.72937 0.26933 -0.62888
vn -0.19161 -0.96863 0.15825
vn -0.17722 0.96233 0.20621
vn 0.7329 -0.2482 -0.63344
vn -0.55661 -0.71303 0.42636
vn -0.10776 0.9528 0.28385
vn 0.71241 -0.2472 -0.65678
vn -0.60551 -0.70266 0.37367
vn -0.02353 0.92773 0.37251
vn 0.66697 -0.23768 -0.70616
vn -0.6432 -0.68853 0.33499
vn 0.04538 0.89688 0.43995
vn 0.62663 -0.22187 -0.74707
vn -0.67144 -0.67401 0.30804
vn 0.09271 0.87047 0.4834
vn 0.59109 -0.20365 -0.78047
vn -0.68332 -0.66668 0.29766
vn 0.45602 0.8826 0.11431
vn 0.26805 -0.60816 -0.74719
vn -0.72379 -0.2744 0.63311
f 1//1 2//2 4//4
f 2//2 5//5 4//4
f 2//2 3//3 5//5
f 3//3 6//6 5//5
f 3//3 1//1 6//6
f 1//1 4//4 6//6
f 4//4 5//5 7//7
f 5//5 8//8 7//7
f 5//5 6//6 8//8
f 6//6 9//9 8//8
f 6//6 4//4 9//9
f 4//4 7//7 9//9
f 7//7 8//8 10//10
f 8//8 11//11 10//10
f 8//8 9//9 11//11
f 9//9 12//12 11//11
f 9//9 7//7 12//12
f 7//7 10//10 12//12
f 10//10 11//11 13//13
f 11//11 14//14 13//13
f 11//11 12//12 14//14
f 12//12 15//15 14//14
f 12//12 10//10 15//15
f 10//10 13//13 15//15
f 13//13 14//14 16//16
f 14//14 17//17 16//16
f 14//14 15//15 17//17
f 15//15 18//18 17//17
f 15//15 13//13 18//18
f 13//13 16//16 18//18
f 16//16 17//17 19//19
f 17//17 20//20 19//19
f 17//17 18//18 20//20
f 18//18 21//21 20//20
f 18//18 16//16 21//21
f 16//16 19//19 21//21
g Wick4
usemtl Meche
v -0.07832 0.04205 -0.09568
v -0.09095 0.0047 -0.07778
v -0.05827 0.00514 -0.10618
v -0.05875 0.04625 -0.0731
v -0.0718 0.00882 -0.05568
v -0.03912 0.00925 -0.08408
v -0.03783 0.04965 -0.04899
v -0.05204 0.01205 -0.0329
v -0.01936 0.01248 -0.0613
v -0.01509 0.05128 -0.0228
v -0.03063 0.01357 -0.00824
v 0.00205 0.014 -0.03664
v 0.00832 0.05116 0.00413
v -0.0084 0.01346 0.01733
v 0.02428 0.01389 -0.01108
v 0.03151 0.04936 0.03078
v 0.01379 0.01173 0.04284
v 0.04619 0.0122 0.01412
v 0.05719 0.0458 0.05916
v 0.03893 0.00824 0.07064
v 0.07062 0.00881 0.04114
v 0.08793 0.04043 0.09121
v 0.07047 0.00273 0.10348
v 0.10004 0.00365 0.07186
v 0.12394 0.03508 0.12136
v 0.10957 -0.00302 0.13606
v 0.13407 -0.00144 0.10039
v 0.16595 0.03152 0.14446
v 0.15503 -0.00688 0.16112
v 0.17419 -0.00484 0.12235
v 0.21139 0.02881 0.16424
v 0.20162 -0.00966 0.18143
v 0.21899 -0.00751 0.14182
vn 0.29168 0.86255 -0.41344
vn -0.75469 -0.00997 0.65601
vn 0.46309 -0.85251 -0.24244
vn -0.08804 0.99239 -0.0861
vn -0.60409 -0.5037 0.61755
vn 0.69227 -0.48845 -0.53121
vn -0.05767 0.99703 -0.05112
vn -0.61502 -0.50573 0.60497
vn 0.67274 -0.49069 -0.55375
vn -0.02177 0.99971 -0.0098
vn -0.63456 -0.50804 0.58243
vn 0.65629 -0.49124 -0.57268
vn 0.01023 0.99958 0.02697
vn -0.65095 -0.50857 0.56357
vn 0.64078 -0.49058 -0.59053
vn 0.03628 0.99774 0.05647
vn -0.65929 -0.50866 0.55371
vn 0.62331 -0.48874 -0.61042
vn 0.0581 0.99506 0.08045
vn -0.6583 -0.50946 0.55415
vn 0.60116 -0.48572 -0.63458
vn 0.04898 0.99608 0.07363
vn -0.6167 -0.51719 0.59346
vn 0.56933 -0.48153 -0.66633
vn 0.00977 0.99855 0.05295
vn -0.50186 -0.53305 0.68118
vn 0.49036 -0.47185 -0.73274
vn 0.01149 0.99809 0.06066
vn -0.39385 -0.54087 0.7432
vn 0.37992 -0.45886 -0.80319
vn -0.17545 0.83768 0.51721
vn -0.22683 -0.88849 0.39893
vn 0.40091 0.05137 -0.91468
f 22//22 23//23 25//25
f 23//23 26//26 25//25
f 23//23 24//24 26//26
f 24//24 27//27 26//26
f 24//24 22//22 27//27
f 22//22 25//25 27//27
f 25//25 26//26 28//28
f 26//26 29//29 28//28
f 26//26 27//27 29//29
f 27//27 30//30 29//29
f 27//27 25//25 30//30
f 25//25 28//28 30//30
f 28//28 29//29 31//31
f 29//29 32//32 31//31
f 29//29 30//30 32//32
f 30//30 33//33 32//32
f 30//30 28//28 33//33
f 28//28 31//31 33//33
f 31//31 32//32 34//34
f 32//32 35//35 34//34
f 32//32 33//33 35//35
f 33//33 36//36 35//35
f 33//33 31//31 36//36
f 31//31 34//34 36//36
f 34//34 35//35 37//37
f 35//35 38//38 37//37
f 35//35 36//36 38//38
f 36//36 39//39 38//38
f 36//36 34//34 39//39
f 34//34 37//37 39//39
f 37//37 38//38 40//40
f 38//38 41//41 40//40
f 38//38 39//39 41//41
f 39//39 42//42 41//41
f 39//39 37//37 42//42
f 37//37 40//40 42//42
f 40//40 41//41 43//43
f 41//41 44//44 43//43
f 41//41 42//42 44//44
f 42//42 45//45 44//44
f 42//42 40//40 45//45
f 40//40 43//43 45//45
f 43//43 44//44 46//46
f 44//44 47//47 46//46
f 44//44 45//45 47//47
f 45//45 48//48 47//47
f 45//45 43//43 48//48
f 43//43 46//46 48//48
f 46//46 47//47 49//49
f 47//47 50//50 49//49
f 47//47 48//48 50//50
f 48//48 51//51 50//50
f 48//48 46//46 51//51
f 46//46 49//49 51//51
f 49//49 50//50 52//52
f 50//50 53//53 52//52
f 50//50 51//51 53//53
f 51//51 54//54 53//53
f 51//51 49//49 54//54
f 49//49 52//52 54//54
g Wick2
usemtl Meche
v 0.14323 0.02614 -0.01573
v 0.13452 -0.00711 -0.04206
v 0.15258 -0.0143 -0.00337
v 0.10572 0.02261 0.00113
v 0.09717 -0.01063 -0.02528
v 0.11447 -0.01788 0.01375
v 0.06268 0.01946 0.01876
v 0.0545 -0.01376 -0.00781
v 0.06999 -0.02112 0.03195
v 0.00874 0.01705 0.03791
v -0.00016 -0.01619 0.01158
v 0.014 -0.02359 0.05183
v -0.05619 0.01829 0.06039
v -0.06738 -0.01489 0.03486
v -0.05352 -0.02228 0.07521
v -0.13345 0.02616 0.08845
v -0.14648 -0.00684 0.06359
v -0.13257 -0.01424 0.10392
v -0.21753 0.03746 0.11954
v -0.23108 0.00452 0.09488
v -0.21716 -0.00288 0.13521
vn 0.20101 0.76782 0.60832
vn -0.41714 0.16588 -0.89358
vn 0.21603 -0.93374 0.28541
vn -0.01267 0.98204 0.18824
vn -0.33788 -0.346 -0.87528
vn 0.35046 -0.63622 0.68731
vn -0.00331 0.98293 0.18395
vn -0.3063 -0.34408 -0.88758
vn 0.30962 -0.63914 0.70401
vn 0.04094 0.98497 0.16779
vn -0.29077 -0.34363 -0.89296
vn 0.24982 -0.64087 0.72586
vn 0.1106 0.98348 0.14331
vn -0.31398 -0.34404 -0.88491
vn 0.2036 -0.63854 0.74217
vn 0.16155 0.97892 0.12497
vn -0.35162 -0.34185 -0.87149
vn 0.1904 -0.63699 0.74699
vn -0.00862 0.93218 -0.36188
vn -0.31251 -0.7609 -0.56866
vn 0.32135 -0.17185 0.93124
f 55//55 56//56 58//58
f 56//56 59//59 58//58
f 56//56 57//57 59//59
f 57//57 60//60 59//59
f 57//57 55//55 60//60
f 55//55 58//58 60//60
f 58//58 59//59 61//61
f 59//59 62//62 61//61
f 59//59 60//60 62//62
f 60//60 63//63 62//62
f 60//60 58//58 63//63
f 58//58 61//61 63//63
f 61//61 62//62 64//64
f 62//62 65//65 64//64
f 62//62 63//63 65//65
f 63//63 66//66 65//65
f 63//63 61//61 66//66
f 61//61 64//64 66//66
f 64//64 65//65 67//67
f 65//65 68//68 67//67
f 65//65 66//66 68//68
f 66//66 69//69 68//68
f 66//66 64//64 69//69
f 64//64 67//67 69//69
f 67//67 68//68 70//70
f 68//68 71//71 70//70
f 68//68 69//69 71//71
f 69//69 72//72 71//71
f 69//69 67//67 72//72
f 67//67 70//70 72//72
f 70//70 71//71 73//73
f 71//71 74//74 73//73
f 71//71 72//72 74//74
f 72//72 75//75 74//74
f 72//72 70//70 75//75
f 70//70 73//73 75//75
g Wick1
usemtl Meche
v -0.08505 -0.00871 0.24847
v -0.10676 0.02857 0.24484
v -0.06628 0.0285 0.26021
v -0.06997 -0.00379 0.20878
v -0.09152 0.03354 0.20472
v -0.051 0.03349 0.21998
v -0.05427 0.00017 0.16682
v -0.07539 0.03761 0.16159
v -0.03476 0.03758 0.17658
v -0.03718 0.00234 0.11993
v -0.05749 0.03985 0.11246
v -0.01677 0.03982 0.12718
v -0.02048 -0.00002 0.07339
v -0.03926 0.0372 0.06167
v 0.00152 0.03716 0.07624
v -0.00525 -0.0097 0.03057
v -0.02251 0.02666 0.01456
v 0.01829 0.02659 0.02904
v 0.0099 -0.02352 -0.01228
v -0.00684 0.0124 -0.02977
v 0.03398 0.01232 -0.01531
vn 0.50153 -0.86107 0.08379
vn -0.93487 0.00157 -0.35498
vn 0.43337 0.85947 0.27112
vn 0.03513 -0.99467 -0.09692
vn -0.83032 0.49773 -0.25066
vn 0.79527 0.4968 0.34746
vn 0.02288 -0.99768 -0.06409
vn -0.82773 0.49857 -0.25746
vn 0.80506 0.4987 0.3212
vn -0.00091 -1 0.00087
vn -0.82172 0.49972 -0.27396
vn 0.82293 0.49872 0.27216
vn -0.04335 -0.99184 0.11988
vn -0.80738 0.49976 -0.31366
vn 0.85083 0.48806 0.19466
vn -0.08388 -0.96851 0.23441
vn -0.78123 0.49028 -0.3864
vn 0.86523 0.47721 0.15375
vn -0.5561 -0.82814 0.07022
vn -0.38605 0.82961 -0.40339
vn 0.94258 -0.0013 0.33398
f 76//76 77//77 79//79
f 77//77 80//80 79//79
f 77//77 78//78 80//80
f 78//78 81//81 80//80
f 78//78 76//76 81//81
f 76//76 79//79 81//81
f 79//79 80//80 82//82
f 80//80 83//83 82//82
f 80//80 81//81 83//83
f 81//81 84//84 83//83
f 81//81 79//79 84//84
f 79//79 82//82 84//84
f 82//82 83//83 85//85
f 83//83 86//86 85//85
f 83//83 84//84 86//86
f 84//84 87//87 86//86
f 84//84 82//82 87//87
f 82//82 85//85 87//87
f 85//85 86//86 88//88
f 86//86 89//89 88//88
f 86//86 87//87 89//89
f 87//87 90//90 89//89
f 87//87 85//85 90//90
f 85//85 88//88 90//90
f 88//88 89//89 91//91
f 89//89 92//92 91//91
f 89//89 90//90 92//92
f 90//90 93//93 92//92
f 90//90 88//88 93//93
f 88//88 91//91 93//93
f 91//91 92//92 94//94
f 92//92 95//95 94//94
f 92//92 93//93 95//95
f 93//93 96//96 95//95
f 93//93 91//91 96//96
f 91//91 94//94 96//96
g Wick5
usemtl Meche
v 0.01956 0.08909 0.01087
v -0.0177 0.0671 0.00939
v -0.01773 0.1101 0.00434
v 0.02447 0.08382 -0.03408
v -0.01283 0.06186 -0.03531
v -0.01283 0.10484 -0.0406
v 0.02912 0.07793 -0.07968
v -0.00826 0.05606 -0.08014
v -0.00818 0.09894 -0.08618
v 0.03321 0.07083 -0.12615
v -0.00427 0.04916 -0.12544
v -0.00403 0.09174 -0.13328
v 0.03747 0.06034 -0.17495
v -0.00014 0.03898 -0.17284
v 0.00037 0.08088 -0.18376
v 0.04263 0.04418 -0.22797
v 0.00493 0.0231 -0.22488
v 0.00568 0.0643 -0.23819
v 0.04826 0.02515 -0.28322
v 0.01053 0.00417 -0.27984
v 0.01135 0.04513 -0.29386
vn 0.8607 0.50796 0.03433
vn 0.00058 -0.99319 0.11649
vn -0.86128 0.48522 -0.15084
vn 0.99491 0.01226 0.1
vn -0.49731 -0.86588 0.05415
vn -0.49763 0.85357 -0.15419
vn 0.9962 0.01035 0.08647
vn -0.49933 -0.86324 0.07401
vn -0.49696 0.85277 -0.16064
vn 0.99764 0.00702 0.06834
vn -0.50377 -0.85528 0.12126
vn -0.49443 0.84819 -0.19001
vn 0.99783 0.00503 0.06569
vn -0.50977 -0.84004 0.18568
vn -0.48913 0.83516 -0.25153
vn 0.9963 0.00959 0.08537
vn -0.51321 -0.82845 0.22424
vn -0.48336 0.81893 -0.30939
vn 0.85245 -0.46139 0.24585
vn -0.87133 -0.48445 0.07812
vn 0.01878 0.9459 -0.32391
f 97//97 98//98 100//100
f 98//98 101//101 100//100
f 98//98 99//99 101//101
f 99//99 102//102 101//101
f 99//99 97//97 102//102
f 97//97 100//100 102//102
f 100//100 101//101 103//103
f 101//101 104//104 103//103
f 101//101 102//102 104//104
f 102//102 105//105 104//104
f 102//102 100//100 105//105
f 100//100 103//103 105//105
f 103//103 104//104 106//106
f 104//104 107//107 106//106
f 104//104 105//105 107//107
f 105//105 108//108 107//107
f 105//105 103//103 108//108
f 103//103 106//106 108//108
f 106//106 107//107 109//109
f 107//107 110//110 109//109
f 107//107 108//108 110//110
f 108//108 111//111 110//110
f 108//108 106//106 111//111
f 106//106 109//109 111//111
f 109//109 110//110 112//112
f 110//110 113//113 112//112
f 110//110 111//111 113//113
f 111//111 114//114 113//113
f 111//111 109//109 114//114
f 109//109 112//112 114//114
f 112//112 113//113 115//115
f 113//113 116//116 115//115
f 113//113 114//114 116//116
f 114//114 117//117 116//116
f 114//114 112//112 117//117
f 112//112 115//115 117//117
g Wick6
usemtl Meche
v 0.20657 -0.00412 -0.16094
v 0.21514 0.02502 -0.13007
v 0.18691 0.03446 -0.16152
v 0.19348 -0.01063 -0.15114
v 0.20288 0.01891 -0.1209
v 0.17465 0.02835 -0.15234
v 0.17887 -0.01677 -0.13987
v 0.19062 0.01371 -0.11146
v 0.16239 0.02315 -0.1429
v 0.163 -0.02134 -0.127
v 0.17751 0.00995 -0.10082
v 0.14928 0.01939 -0.13227
v 0.14694 -0.02413 -0.11341
v 0.16392 0.00759 -0.08932
v 0.13569 0.01703 -0.12077
v 0.13117 -0.02514 -0.09957
v 0.15037 0.00673 -0.07741
v 0.12238 0.01617 -0.10908
v 0.11433 -0.02449 -0.08471
v 0.13501 0.00733 -0.06384
v 0.10763 0.01674 -0.09604
v 0.09523 -0.0224 -0.06821
v 0.11555 0.00947 -0.04704
v 0.08994 0.01869 -0.08071
v 0.07455 -0.02004 -0.05311
v 0.09176 0.01214 -0.02983
v 0.0703 0.02097 -0.06639
v 0.05202 -0.01836 -0.04178
v 0.06555 0.01409 -0.01662
v 0.04853 0.02263 -0.05551
v 0.02778 -0.01696 -0.03198
v 0.04006 0.01557 -0.00629
v 0.02455 0.02402 -0.04582
vn -0.19814 -0.67307 -0.71255
vn 0.65177 -0.2182 0.72635
vn -0.45417 0.89082 -0.01335
vn 0.1258 -0.91345 -0.38701
vn 0.49039 0.2623 0.8311
vn -0.61722 0.65001 -0.44331
vn 0.0642 -0.93848 -0.3393
vn 0.5123 0.27226 0.81451
vn -0.577 0.66421 -0.47529
vn -0.00994 -0.96014 -0.27934
vn 0.55265 0.28667 0.78256
vn -0.54249 0.67218 -0.50386
vn -0.07662 -0.9718 -0.22301
vn 0.5868 0.29452 0.75427
vn -0.51026 0.67601 -0.53165
vn -0.13441 -0.97572 -0.17294
vn 0.61286 0.29827 0.73174
vn -0.47873 0.67652 -0.55959
vn -0.18037 -0.97459 -0.13279
vn 0.62854 0.29946 0.71782
vn -0.44912 0.675 -0.58538
vn -0.18204 -0.9747 -0.12966
vn 0.60492 0.30316 0.73632
vn -0.42436 0.67338 -0.60537
vn -0.13374 -0.97877 -0.15531
vn 0.5088 0.3131 0.80193
vn -0.37248 0.66875 -0.64345
vn -0.11312 -0.98025 -0.16222
vn 0.40529 0.32014 0.8563
vn -0.28901 0.66057 -0.69291
vn 0.07476 -0.94473 0.3192
vn 0.285 0.7505 0.59626
vn -0.35805 0.19247 -0.91365
f 118//118 119//119 121//121
f 119//119 122//122 121//121
f 119//119 120//120 122//122
f 120//120 123//123 122//122
f 120//120 118//118 123//123
f 118//118 121//121 123//123
f 121//121 122//122 124//124
f 122//122 125//125 124//124
f 122//122 123//123 125//125
f 123//123 126//126 125//125
f 123//123 121//121 126//126
f 121//121 124//124 126//126
f 124//124 125//125 127//127
f 125//125 128//128 127//127
f 125//125 126//126 128//128
f 126//126 129//129 128//128
f 126//126 124//124 129//129
f 124//124 127//127 129//129
f 127//127 128//128 130//130
f 128//128 131//131 130//130
f 128//128 129//129 131//131
f 129//129 132//132 131//131
f 129//129 127//127 132//132
f 127//127 130//130 132//132
f 130//130 131//131 133//133
f 131//131 134//134 133//133
f 131//131 132//132 134//134
f 132//132 135//135 134//134
f 132//132 130//130 135//135
f 130//130 133//133 135//135
f 133//133 134//134 136//136
f 134//134 137//137 136//136
f 134//134 135//135 137//137
f 135//135 138//138 137//137
f 135//135 133//133 138//138
f 133//133 136//136 138//138
f 136//136 137//137 139//139
f 137//137 140//140 139//139
f 137//137 138//138 140//140
f 138//138 141//141 140//140
f 138//138 136//136 141//141
f 136//136 139//139 141//141
f 139//139 140//140 142//142
f 140//140 143//143 142//142
f 140//140 141//141 143//143
f 141//141 144//144 143//143
f 141//141 139//139 144//144
f 139//139 142//142 144//144
f 142//142 143//143 145//145
f 143//143 146//146 145//145
f 143//143 144//144 146//146
f 144//144 147//147 146//146
f 144//144 142//142 147//147
f 142//142 145//145 147//147
f 145//145 146//146 148//148
f 146//146 149//149 148//148
f 146//146 147//147 149//149
f 147//147 150//150 149//149
f 147//147 145//145 150//150
f 145//145 148//148 150//150
