#Produced by Art of Illusion 2.3, Tue Jun 20 18:15:57 CEST 2006
mtllib scene_bonfire.mtl
g Sol
usemtl Sol
v 4.01083 -2.63235 -2.10111
v 3.62966 -2.63235 3.10904
v -1.43526 -2.63235 3.4781
v -1.80347 -2.63235 -2.233
v 1.38443 -2.63235 -3.07039
v 0.94715 -2.63235 0.31338
v 4.47821 -2.63235 0.52381
v -2.57012 -2.63235 1.13435
v 0.94715 -2.63235 3.87138
v -0.47259 -2.63235 -2.98586
v -1.10039 -2.63235 -1.46561
v 4.57137 -2.63235 -0.83781
v -2.11222 -2.63235 2.6727
v 2.36688 -2.63235 3.71442
v 3.06195 -2.63235 -2.75134
v 2.99468 -2.63235 2.09238
v 4.10052 -2.63235 1.98027
v -2.4977 -2.63235 -0.86023
v -0.40532 -2.63235 3.8938
v 2.99468 -2.63235 -1.46561
v 0.94715 -2.63235 -1.46561
v 2.99468 -2.63235 0.31338
v 0.94715 -2.63235 2.09238
v -1.10039 -2.63235 0.31338
v -1.10039 -2.63235 2.09238
vn 0 1 0
vn 0 1 0
vn 0 1 0
vn 0 1 0
vn 0 1 0
vn 0 1 0
vn 0 1 0
vn 0 1 0
vn 0 1 0
vn 0 1 0
vn 0 1 0
vn 0 1 0
vn 0 1 0
vn 0 1 0
vn 0 1 0
vn 0 1 0
vn 0 1 0
vn 0 1 0
vn 0 1 0
vn 0 1 0
vn 0 1 0
vn 0 1 0
vn 0 1 0
vn 0 1 0
vn 0 1 0
vt 1 1
vt 1 0
vt 0 -0
vt 0 1
vt 0.5 1
vt 0.5 0.5
vt 1 0.5
vt 0 0.5
vt 0.5 0
vt 0.25 1
vt 0.25 0.75
vt 1 0.75
vt 0 0.25
vt 0.75 0
vt 0.75 1
vt 0.75 0.25
vt 1 0.25
vt 0 0.75
vt 0.25 0
vt 0.75 0.75
vt 0.5 0.75
vt 0.75 0.5
vt 0.5 0.25
vt 0.25 0.5
vt 0.25 0.25
f 2/2/2 17/17/17 16/16/16
f 3/3/3 19/19/19 13/13/13
f 1/1/1 15/15/15 12/12/12
f 4/4/4 11/11/11 10/10/10
f 7/7/7 20/20/20 22/22/22
f 2/2/2 16/16/16 14/14/14
f 4/4/4 18/18/18 11/11/11
f 9/9/9 23/23/23 25/25/25
f 7/7/7 22/22/22 17/17/17
f 6/6/6 16/16/16 22/22/22
f 17/17/17 22/22/22 16/16/16
f 9/9/9 25/25/25 19/19/19
f 8/8/8 13/13/13 25/25/25
f 19/19/19 25/25/25 13/13/13
f 5/5/5 20/20/20 15/15/15
f 7/7/7 12/12/12 20/20/20
f 15/15/15 20/20/20 12/12/12
f 6/6/6 21/21/21 11/11/11
f 5/5/5 10/10/10 21/21/21
f 11/11/11 21/21/21 10/10/10
f 5/5/5 21/21/21 20/20/20
f 6/6/6 22/22/22 21/21/21
f 20/20/20 21/21/21 22/22/22
f 6/6/6 23/23/23 16/16/16
f 9/9/9 14/14/14 23/23/23
f 16/16/16 23/23/23 14/14/14
f 8/8/8 24/24/24 18/18/18
f 6/6/6 11/11/11 24/24/24
f 18/18/18 24/24/24 11/11/11
f 6/6/6 24/24/24 23/23/23
f 8/8/8 25/25/25 24/24/24
f 23/23/23 24/24/24 25/25/25
g Sol_1
usemtl Herbe
v 10.19963 -2.63378 -7.07764
v 10.19963 -2.63378 8.45292
v -7.81014 -2.63378 8.45292
v -7.81014 -2.63378 -7.07764
vn 0 1 0
vn 0 1 0
vn 0 1 0
vn 0 1 0
vt 3 0
vt 3 3
vt -0 3
vt -0 0
f 27/27/27 26/26/26 29/29/29
f 28/28/28 27/27/27 29/29/29
g Cube_2
usemtl Pierre
v -1.93625 -2.61525 -2.84375
v -1.80625 -2.61525 -1.53625
v -0.03375 -2.60525 -1.11625
v -0.32375 -2.60525 -2.97375
v -2.13482 -1.11607 -2.98454
v -2.04373 -1.17413 -1.36024
v -0.45947 -1.0535 -1.02384
v -0.55826 -1.51789 -2.79505
v -2.52625 -2.129 -2.125
v -1.1711 -1.82027 -1.35646
v -0.62995 -1.97911 -2.17005
v -1.28 -1.979 -3.08375
v -1.28 -2.61525 -2.125
v -1.54791 -0.64609 -2.15941
v -1.79625 -2.61525 -2.145
v -1.60812 -2.61525 -1.76562
v -1.28 -2.61525 -1.40625
v -0.80188 -2.61525 -1.75562
v -0.15375 -2.60525 -2.125
v -0.97188 -2.61525 -2.33438
v -1.60813 -2.61525 -2.48438
v -1.58268 -2.27099 -1.30112
v -0.89767 -2.33277 -1.13984
v -1.30644 -0.84174 -1.08985
v -0.91251 -1.61572 -0.76947
v -2.10619 -1.95276 -0.91301
v -1.5423 -1.50641 -0.94468
v -2.23625 -2.19712 -2.48438
v -2.33625 -2.32712 -1.76562
v -2.09075 -1.32474 -2.03967
v -2.33625 -1.67087 -1.76562
v -1.93625 -1.959 -2.84375
v -2.33625 -1.67088 -2.48438
v -1.29 -2.61525 -3.38375
v -0.87711 -2.25971 -3.26808
v -1.60813 -2.28712 -2.84375
v -1.45813 -1.63088 -2.97375
v -0.62375 -1.959 -2.84375
v -0.95188 -1.63088 -2.98375
v -1.63795 -1.20836 -2.44004
v -1.65812 -1.02275 -1.76562
v -1.18187 -0.95275 -1.67563
v -1.35053 -1.17541 -3.2031
v -0.68829 -1.11066 -2.5486
v -0.3569 -2.07939 -1.7829
v -0.55375 -2.22712 -2.48438
v -0.52375 -1.31275 -2.125
v -0.62375 -1.63088 -2.48438
v -0.63956 -2.07261 -1.087
v -0.19375 -1.64088 -1.76563
vn -0.56739 -0.64111 -0.51677
vn -0.25499 -0.88884 0.38071
vn 0.73488 -0.35366 0.57869
vn 0.79046 -0.43488 -0.43134
vn -0.5604 0.60989 -0.56034
vn -0.67355 0.66085 0.33107
vn 0.64607 0.58201 0.49383
vn 0.86887 0.11879 -0.48058
vn -0.94886 -0.30014 -0.09792
vn -0.23616 -0.39253 0.8889
vn 0.9387 0.10737 -0.32759
vn -0.35843 0.10286 -0.92787
vn -0 -1 0
vn -0.37134 0.91464 -0.15982
vn -0.29913 -0.95402 -0.01917
vn -0 -1 0
vn -0.12874 -0.8584 0.49656
vn 0.00736 -0.99997 0.00125
vn 0.85462 -0.47337 -0.21342
vn 0.00634 -0.99998 -0.00168
vn -0 -1 0
vn 0.0739 -0.41722 0.9058
vn -0.23693 -0.32222 0.91654
vn -0.14251 0.86418 0.48259
vn 0.00685 -0.19917 0.97994
vn -0.46247 -0.19104 0.86581
vn -0.15817 -0.02766 0.98702
vn -0.78592 -0.42546 -0.44867
vn -0.79501 -0.5745 0.1947
vn -0.65954 0.7509 -0.03401
vn -0.93462 0.31614 0.16289
vn -0.44808 -0.14443 -0.88225
vn -0.9355 0.1553 -0.31736
vn -0.27537 -0.39624 -0.87588
vn 0.22575 0.2598 -0.9389
vn -0.35194 0.18861 -0.91682
vn -0.18321 -0.18156 -0.96616
vn 0.86844 0.25831 -0.42318
vn 0.29955 0.07869 -0.95083
vn -0.27359 0.94253 -0.1918
vn -0.49884 0.86639 0.02286
vn 0.21176 0.97719 0.01594
vn 0.02613 0.4967 -0.86753
vn 0.57319 0.77356 -0.2703
vn 0.97148 0.19854 -0.12967
vn 0.89485 0.43671 -0.0924
vn 0.78606 0.58821 -0.19006
vn 0.98435 -0.15424 -0.08518
vn 0.53461 -0.11047 0.83785
vn 0.99464 0.02112 -0.10123
vt -0.38219 -0.68884
vt -0.11625 -0.72071
vt 0.14114 -0.62196
vt -0.63427 -0.64897
vt -0.37605 -0.3066
vt -0.12425 -0.30007
vt 0.10264 -0.31444
vt -0.63097 -0.36596
vt -0 -0.54315
vt 0.02243 -0.44371
vt -0.73899 -0.50982
vt -0.5 -0.50664
vt -0 -1
vt -0.27035 -0.06459
vt -0.25616 -0.78771
vt -0.11781 -0.7969
vt -0 -0.73554
vt 0.14465 -0.76314
vt -0 -0.66582
vt -0.65423 -0.83566
vt -0.38219 -0.7969
vt -0.05634 -0.60871
vt 0.05927 -0.60821
vt -0.00406 -0.23792
vt 0.04228 -0.42369
vt -0.096 -0.49865
vt -0.03489 -0.38599
vt -0.30754 -0.5729
vt -0.19755 -0.60145
vt -0.2333 -0.28954
vt -0.19755 -0.41956
vt -0.38219 -0.5
vt -0.30245 -0.41956
vt -0.49874 -0.65297
vt -0.55421 -0.57741
vt -0.43135 -0.62529
vt -0.46701 -0.38486
vt -0.61781 -0.5
vt -0.55842 -0.39087
vt -0.36511 -0.18014
vt -0.12927 -0.16181
vt 0.0343 -0.13647
vt -0.4896 -0.30026
vt -0.65036 -0.22568
vt 0.1932 -0.53874
vt -0.6763 -0.60172
vt -0 -0.27491
vt -0.6696 -0.36845
vt 0.08874 -0.52957
vt 0.19891 -0.41368
f 31/31/31 44/44/44 45/45/45
f 32/32/32 46/46/46 47/47/47
f 33/33/33 48/48/48 49/49/49
f 30/30/30 63/63/63 50/50/50
f 31/31/31 46/46/46 51/51/51
f 32/32/32 78/78/78 52/52/52
f 36/36/36 53/53/53 54/54/54
f 35/35/35 55/55/55 56/56/56
f 30/30/30 44/44/44 57/57/57
f 31/31/31 55/55/55 58/58/58
f 35/35/35 59/59/59 60/60/60
f 34/34/34 61/61/61 62/62/62
f 33/33/33 63/63/63 64/64/64
f 30/30/30 61/61/61 65/65/65
f 34/34/34 72/72/72 66/66/66
f 37/37/37 67/67/67 68/68/68
f 34/34/34 59/59/59 69/69/69
f 35/35/35 53/53/53 70/70/70
f 36/36/36 76/76/76 71/71/71
f 37/37/37 72/72/72 73/73/73
f 32/32/32 48/48/48 74/74/74
f 33/33/33 67/67/67 75/75/75
f 37/37/37 76/76/76 77/77/77
f 36/36/36 78/78/78 79/79/79
f 30/30/30 50/50/50 44/44/44
f 42/42/42 45/45/45 50/50/50
f 44/44/44 50/50/50 45/45/45
f 31/31/31 45/45/45 46/46/46
f 42/42/42 47/47/47 45/45/45
f 46/46/46 45/45/45 47/47/47
f 32/32/32 47/47/47 48/48/48
f 42/42/42 49/49/49 47/47/47
f 48/48/48 47/47/47 49/49/49
f 33/33/33 49/49/49 63/63/63
f 42/42/42 50/50/50 49/49/49
f 63/63/63 49/49/49 50/50/50
f 32/32/32 52/52/52 46/46/46
f 39/39/39 51/51/51 52/52/52
f 46/46/46 52/52/52 51/51/51
f 36/36/36 54/54/54 78/78/78
f 39/39/39 52/52/52 54/54/54
f 78/78/78 54/54/54 52/52/52
f 35/35/35 56/56/56 53/53/53
f 39/39/39 54/54/54 56/56/56
f 53/53/53 56/56/56 54/54/54
f 31/31/31 51/51/51 55/55/55
f 39/39/39 56/56/56 51/51/51
f 55/55/55 51/51/51 56/56/56
f 31/31/31 58/58/58 44/44/44
f 38/38/38 57/57/57 58/58/58
f 44/44/44 58/58/58 57/57/57
f 35/35/35 60/60/60 55/55/55
f 38/38/38 58/58/58 60/60/60
f 55/55/55 60/60/60 58/58/58
f 34/34/34 62/62/62 59/59/59
f 38/38/38 60/60/60 62/62/62
f 59/59/59 62/62/62 60/60/60
f 30/30/30 57/57/57 61/61/61
f 38/38/38 62/62/62 57/57/57
f 61/61/61 57/57/57 62/62/62
f 30/30/30 65/65/65 63/63/63
f 41/41/41 64/64/64 65/65/65
f 63/63/63 65/65/65 64/64/64
f 34/34/34 66/66/66 61/61/61
f 41/41/41 65/65/65 66/66/66
f 61/61/61 66/66/66 65/65/65
f 37/37/37 68/68/68 72/72/72
f 41/41/41 66/66/66 68/68/68
f 72/72/72 68/68/68 66/66/66
f 33/33/33 64/64/64 67/67/67
f 41/41/41 68/68/68 64/64/64
f 67/67/67 64/64/64 68/68/68
f 35/35/35 70/70/70 59/59/59
f 43/43/43 69/69/69 70/70/70
f 59/59/59 70/70/70 69/69/69
f 36/36/36 71/71/71 53/53/53
f 43/43/43 70/70/70 71/71/71
f 53/53/53 71/71/71 70/70/70
f 37/37/37 73/73/73 76/76/76
f 43/43/43 71/71/71 73/73/73
f 76/76/76 73/73/73 71/71/71
f 34/34/34 69/69/69 72/72/72
f 43/43/43 73/73/73 69/69/69
f 72/72/72 69/69/69 73/73/73
f 33/33/33 75/75/75 48/48/48
f 40/40/40 74/74/74 75/75/75
f 48/48/48 75/75/75 74/74/74
f 37/37/37 77/77/77 67/67/67
f 40/40/40 75/75/75 77/77/77
f 67/67/67 77/77/77 75/75/75
f 36/36/36 79/79/79 76/76/76
f 40/40/40 77/77/77 79/79/79
f 76/76/76 79/79/79 77/77/77
f 32/32/32 74/74/74 78/78/78
f 40/40/40 79/79/79 74/74/74
f 78/78/78 74/74/74 79/79/79
g Cube_2_1
usemtl Pierre
v 4.71578 -2.59385 0.96908
v 3.65048 -2.54768 1.02449
v 3.35117 -2.54476 2.55048
v 4.87262 -2.65445 2.25059
v 4.8966 -1.72036 0.78758
v 3.77269 -2.02868 0.88292
v 3.57908 -1.94777 2.14533
v 4.77507 -1.9279 2.00311
v 4.21019 -2.30787 0.48933
v 3.80701 -2.12483 1.66744
v 4.19964 -2.2853 1.91649
v 5.3092 -2.29608 1.31663
v 4.12756 -2.51512 1.49834
v 4.31769 -1.50211 1.43237
v 4.14376 -2.5229 1.04382
v 3.76818 -2.51512 1.17021
v 3.56477 -2.57182 1.52683
v 3.78049 -2.51666 1.96004
v 4.08222 -2.63778 2.40855
v 4.33651 -2.51513 1.80488
v 4.48693 -2.51512 1.17021
v 3.66782 -2.41088 1.16573
v 3.49893 -2.45295 1.93584
v 3.57063 -1.44733 1.47932
v 3.34564 -2.11298 1.87267
v 3.36618 -2.28892 0.78369
v 3.52634 -2.06977 1.25096
v 4.44209 -2.30709 0.72198
v 3.9045 -2.3841 0.64269
v 4.27861 -2.04888 0.8154
v 4.0267 -2.2028 0.65367
v 4.69146 -2.17881 0.94218
v 4.52753 -2.07187 0.67324
v 5.1622 -2.68208 1.56167
v 5.0457 -2.54174 1.81067
v 4.6583 -2.55351 1.29329
v 4.80974 -1.96773 1.39845
v 4.79808 -2.30075 1.94259
v 4.82602 -1.99448 1.73693
v 4.59999 -1.88218 1.28399
v 4.02828 -1.92414 1.23097
v 3.98267 -1.92509 1.56244
v 5.01281 -1.71832 1.4203
v 4.57431 -1.84068 2.00082
v 3.87403 -2.39767 2.17983
v 4.52704 -2.59399 2.00978
v 4.18147 -1.57291 2.05086
v 4.59315 -1.99502 1.90538
v 3.4968 -2.39967 2.03573
v 3.94664 -2.05492 2.33629
vn 0.63578 -0.70905 -0.30502
vn -0.45424 -0.88932 -0.05264
vn -0.64875 -0.10545 0.75366
vn 0.15199 -0.36415 0.91886
vn 0.57342 0.60698 -0.55024
vn -0.22379 0.7929 -0.56677
vn -0.55019 0.47002 0.6902
vn 0.46309 0.186 0.86658
vn 0.04993 -0.26731 -0.96232
vn -0.87472 -0.40045 -0.27295
vn 0.39923 -0.00984 0.9168
vn 0.88938 0.01535 -0.4569
vn 0.00093 -1 -0.00084
vn -0.03729 0.98458 -0.17093
vn 0.01751 -0.98351 -0.18003
vn 0.11877 -0.99113 0.05965
vn -0.65139 -0.73943 -0.17011
vn 0.02352 -0.99798 -0.05902
vn 0.46167 -0.42444 0.77892
vn -0.09059 -0.99137 -0.09474
vn -0.12565 -0.98711 0.09916
vn -0.97453 -0.07713 0.21059
vn -0.96188 0.06334 -0.26604
vn -0.23627 0.96936 -0.06713
vn -0.98783 -0.15418 0.0205
vn -0.89199 -0.04078 -0.45021
vn -0.99349 -0.08855 -0.07166
vn 0.44937 -0.59961 -0.66222
vn -0.15952 -0.5207 -0.8387
vn -0.19189 0.88594 -0.42225
vn -0.24834 0.60439 -0.757
vn 0.88378 -0.28325 -0.37244
vn 0.30178 0.17049 -0.93801
vn 0.80791 -0.32588 -0.491
vn 0.91292 0.24509 0.32636
vn 0.81901 0.40013 -0.41123
vn 0.93554 -0.14602 -0.32162
vn 0.41097 0.35739 0.83868
vn 0.95402 0.04781 0.2959
vn -0.09708 0.97029 -0.22161
vn 0.09537 0.90258 -0.41984
vn 0.01101 0.99432 0.10583
vn 0.82013 0.5712 -0.03347
vn 0.2564 0.86465 -0.43201
vn 0.21822 0.39541 0.89221
vn -0.00158 0.71783 0.69621
vn 0.18981 0.95717 0.21861
vn -0.03998 -0.21443 0.97592
vn -0.90498 0.22408 0.36166
vn 0.09752 -0.01253 0.99515
vt -0.36508 -0.67897
vt -0.11105 -0.65705
vt 0.13712 -0.59244
vt -0.63643 -0.65549
vt -0.36748 -0.37209
vt -0.14823 -0.45619
vt 0.1215 -0.43486
vt -0.61759 -0.41088
vt -0.24583 -0.55258
vt 0.05507 -0.49144
vt 0.23529 -0.61167
vt -0.47108 -0.54609
vt -0.02165 -0.9095
vt -0.37412 -0.05668
vt -0.21874 -0.71593
vt -0.10128 -0.68362
vt 0.0032 -0.68269
vt 0.12282 -0.67067
vt 0.22271 -0.66032
vt -0.6974 -0.78233
vt -0.35094 -0.73159
vt -0.088 -0.62399
vt 0.08345 -0.61318
vt -0.00811 -0.24471
vt 0.06137 -0.49201
vt -0.11144 -0.54228
vt -0.05659 -0.47178
vt -0.29049 -0.56526
vt -0.1916 -0.58246
vt -0.25948 -0.46004
vt -0.21171 -0.52358
vt -0.35757 -0.51816
vt -0.30326 -0.47668
vt -0.50831 -0.66925
vt -0.55639 -0.63975
vt -0.42278 -0.72901
vt -0.46844 -0.41016
vt -0.60462 -0.57245
vt -0.55808 -0.42913
vt -0.40956 -0.32944
vt -0.14796 -0.32644
vt 0.03043 -0.28166
vt -0.481 -0.34339
vt -0.6529 -0.35241
vt 0.16997 -0.60527
vt -0.66513 -0.71372
vt 0.23361 -0.24314
vt -0.63256 -0.41657
vt 0.09858 -0.58979
vt 0.19574 -0.47011
f 81/81/81 94/94/94 95/95/95
f 82/82/82 96/96/96 97/97/97
f 83/83/83 98/98/98 99/99/99
f 80/80/80 113/113/113 100/100/100
f 81/81/81 96/96/96 101/101/101
f 82/82/82 128/128/128 102/102/102
f 86/86/86 103/103/103 104/104/104
f 85/85/85 105/105/105 106/106/106
f 80/80/80 94/94/94 107/107/107
f 81/81/81 105/105/105 108/108/108
f 85/85/85 109/109/109 110/110/110
f 84/84/84 111/111/111 112/112/112
f 83/83/83 113/113/113 114/114/114
f 80/80/80 111/111/111 115/115/115
f 84/84/84 122/122/122 116/116/116
f 87/87/87 117/117/117 118/118/118
f 84/84/84 109/109/109 119/119/119
f 85/85/85 103/103/103 120/120/120
f 86/86/86 126/126/126 121/121/121
f 87/87/87 122/122/122 123/123/123
f 82/82/82 98/98/98 124/124/124
f 83/83/83 117/117/117 125/125/125
f 87/87/87 126/126/126 127/127/127
f 86/86/86 128/128/128 129/129/129
f 80/80/80 100/100/100 94/94/94
f 92/92/92 95/95/95 100/100/100
f 94/94/94 100/100/100 95/95/95
f 81/81/81 95/95/95 96/96/96
f 92/92/92 97/97/97 95/95/95
f 96/96/96 95/95/95 97/97/97
f 82/82/82 97/97/97 98/98/98
f 92/92/92 99/99/99 97/97/97
f 98/98/98 97/97/97 99/99/99
f 83/83/83 99/99/99 113/113/113
f 92/92/92 100/100/100 99/99/99
f 113/113/113 99/99/99 100/100/100
f 82/82/82 102/102/102 96/96/96
f 89/89/89 101/101/101 102/102/102
f 96/96/96 102/102/102 101/101/101
f 86/86/86 104/104/104 128/128/128
f 89/89/89 102/102/102 104/104/104
f 128/128/128 104/104/104 102/102/102
f 85/85/85 106/106/106 103/103/103
f 89/89/89 104/104/104 106/106/106
f 103/103/103 106/106/106 104/104/104
f 81/81/81 101/101/101 105/105/105
f 89/89/89 106/106/106 101/101/101
f 105/105/105 101/101/101 106/106/106
f 81/81/81 108/108/108 94/94/94
f 88/88/88 107/107/107 108/108/108
f 94/94/94 108/108/108 107/107/107
f 85/85/85 110/110/110 105/105/105
f 88/88/88 108/108/108 110/110/110
f 105/105/105 110/110/110 108/108/108
f 84/84/84 112/112/112 109/109/109
f 88/88/88 110/110/110 112/112/112
f 109/109/109 112/112/112 110/110/110
f 80/80/80 107/107/107 111/111/111
f 88/88/88 112/112/112 107/107/107
f 111/111/111 107/107/107 112/112/112
f 80/80/80 115/115/115 113/113/113
f 91/91/91 114/114/114 115/115/115
f 113/113/113 115/115/115 114/114/114
f 84/84/84 116/116/116 111/111/111
f 91/91/91 115/115/115 116/116/116
f 111/111/111 116/116/116 115/115/115
f 87/87/87 118/118/118 122/122/122
f 91/91/91 116/116/116 118/118/118
f 122/122/122 118/118/118 116/116/116
f 83/83/83 114/114/114 117/117/117
f 91/91/91 118/118/118 114/114/114
f 117/117/117 114/114/114 118/118/118
f 85/85/85 120/120/120 109/109/109
f 93/93/93 119/119/119 120/120/120
f 109/109/109 120/120/120 119/119/119
f 86/86/86 121/121/121 103/103/103
f 93/93/93 120/120/120 121/121/121
f 103/103/103 121/121/121 120/120/120
f 87/87/87 123/123/123 126/126/126
f 93/93/93 121/121/121 123/123/123
f 126/126/126 123/123/123 121/121/121
f 84/84/84 119/119/119 122/122/122
f 93/93/93 123/123/123 119/119/119
f 122/122/122 119/119/119 123/123/123
f 83/83/83 125/125/125 98/98/98
f 90/90/90 124/124/124 125/125/125
f 98/98/98 125/125/125 124/124/124
f 87/87/87 127/127/127 117/117/117
f 90/90/90 125/125/125 127/127/127
f 117/117/117 127/127/127 125/125/125
f 86/86/86 129/129/129 126/126/126
f 90/90/90 127/127/127 129/129/129
f 126/126/126 129/129/129 127/127/127
f 82/82/82 124/124/124 128/128/128
f 90/90/90 129/129/129 124/124/124
f 128/128/128 124/124/124 129/129/129
